<svg width="555" height="403" viewBox="0 0 555 403" fill="none" xmlns="http://www.w3.org/2000/svg">
<g opacity="0.7">
<path d="M438.112 59.4482C428.414 48.017 417.417 38.1761 405.426 30.1982V268.197C432.811 234.141 464.062 210.943 473.343 177.946C483.552 141.657 467.106 93.6004 438.112 59.4482Z" fill="#F1F1F1"/>
<path d="M223.76 352.335V78.0639C189.77 112.048 155.51 150.973 149.741 196.466C144.001 242.38 167.231 294.968 201.492 334.959C208.663 343.369 216.326 351.193 224.427 358.376C223.983 356.404 223.759 354.374 223.76 352.335Z" fill="#F1F1F1"/>
<path d="M247.952 376.139C271.085 390.66 294.731 396.74 314.202 388.535C320.604 385.814 326.551 381.546 332.194 376.139H247.952Z" fill="#F1F1F1"/>
<path d="M405.426 227.31V177.593C376.437 174.654 346.481 173.106 315.796 173.106C284.285 173.106 253.513 174.733 223.76 177.834V227.304L405.426 227.31Z" fill="#E0E0E0"/>
<path d="M384.911 2.21796H244.265C232.938 2.21796 223.755 12.8778 223.755 26.0274V351.956C223.755 365.106 232.938 375.765 244.265 375.765H384.911C396.239 375.765 405.421 365.106 405.421 351.956V26.0274C405.421 12.8778 396.239 2.21796 384.911 2.21796Z" stroke="#131211" stroke-opacity="0.85" stroke-width="3" stroke-miterlimit="10"/>
<path d="M314.588 365.746C319.717 365.746 323.875 360.919 323.875 354.966C323.875 349.012 319.717 344.185 314.588 344.185C309.46 344.185 305.302 349.012 305.302 354.966C305.302 360.919 309.46 365.746 314.588 365.746Z" fill="#131211"/>
<path d="M244.932 262.09C250.73 262.09 255.431 256.633 255.431 249.902C255.431 243.171 250.73 237.714 244.932 237.714C239.134 237.714 234.433 243.171 234.433 249.902C234.433 256.633 239.134 262.09 244.932 262.09Z" fill="#FD8369"/>
<path d="M255.933 300.892C259.2 300.892 261.847 297.818 261.847 294.026C261.847 290.235 259.2 287.161 255.933 287.161C252.667 287.161 250.02 290.235 250.02 294.026C250.02 297.818 252.667 300.892 255.933 300.892Z" fill="#FD8369"/>
<path d="M264.988 244.831H360.266" stroke="#FD8369" stroke-width="3" stroke-miterlimit="10" stroke-linecap="round"/>
<path d="M269.211 294.026H364.489" stroke="#FD8369" stroke-width="3" stroke-miterlimit="10" stroke-linecap="round"/>
<path d="M264.988 255.084H296.649" stroke="#FD8369" stroke-width="3" stroke-miterlimit="10" stroke-linecap="round"/>
<path d="M302.113 63.2791H241.801C241.801 63.2791 245.405 57.4908 255.933 56.4531C266.461 55.4155 261.224 39.6884 276.559 39.6884C291.895 39.6884 288.827 50.3452 295.344 50.3452C301.862 50.3452 302.113 63.2791 302.113 63.2791Z" fill="#F1F1F1"/>
<path d="M345.892 71.4123H387.496C387.496 71.4123 385.008 67.4188 377.746 66.7065C370.484 65.9941 374.098 55.1411 363.522 55.1411C352.946 55.1411 355.057 62.5111 350.564 62.5111C346.071 62.5111 345.892 71.4123 345.892 71.4123Z" fill="#F1F1F1"/>
<path d="M223.755 333.703L405.421 333.703" stroke="#131211" stroke-opacity="0.7" stroke-width="3" stroke-miterlimit="10"/>
<path d="M347.163 2.10974C347.19 2.42467 347.203 2.74109 347.201 3.05764V8.66648C347.202 9.88154 346.996 11.0848 346.596 12.2076C346.196 13.3304 345.609 14.3507 344.869 15.2101C344.13 16.0696 343.251 16.7513 342.284 17.2165C341.317 17.6817 340.281 17.9211 339.234 17.9211H289.952C288.905 17.9218 287.868 17.683 286.9 17.2182C285.932 16.7535 285.053 16.0719 284.312 15.2124C283.571 14.353 282.984 13.3325 282.583 12.2094C282.182 11.0862 281.975 9.88228 281.975 8.66648V3.05764C281.975 2.77158 281.975 2.49675 282.009 2.21631" fill="#131211" fill-opacity="0.85"/>
</g>
<path d="M417.394 74.063H236.335C230.973 74.063 226.626 78.282 226.626 83.4863V123.535C226.626 128.74 230.973 132.958 236.335 132.958H417.394C422.756 132.958 427.102 128.74 427.102 123.535V83.4863C427.102 78.282 422.756 74.063 417.394 74.063Z" fill="#D8DEED"/>
<path d="M396.74 120.823C387.064 120.823 379.221 113.203 379.221 103.804C379.221 94.4042 387.064 86.7845 396.74 86.7845C406.415 86.7845 414.259 94.4042 414.259 103.804C414.259 113.203 406.415 120.823 396.74 120.823ZM396.731 103.574C399.116 103.574 401.05 101.72 401.05 99.4338C401.05 97.1474 399.116 95.294 396.731 95.294C394.345 95.294 392.411 97.1474 392.411 99.4338C392.411 101.72 394.345 103.574 396.731 103.574ZM396.731 105.643C392.407 105.643 388.901 109.003 388.901 113.147H404.56C404.56 109.003 401.055 105.643 396.731 105.643ZM245.295 102.102H346.716C347.252 102.102 347.686 102.523 347.686 103.044V107.967C347.686 108.487 347.252 108.909 346.716 108.909H245.295C244.759 108.909 244.324 108.487 244.324 107.967V103.044C244.324 102.523 244.759 102.102 245.295 102.102ZM245.295 113.164H355.475C356.011 113.164 356.446 113.586 356.446 114.106V119.029C356.446 119.55 356.011 119.972 355.475 119.972H245.295C244.759 119.972 244.324 119.55 244.324 119.029V114.106C244.324 113.586 244.759 113.164 245.295 113.164Z" fill="#F2F6FB"/>
<path d="M357.227 91.0394H245.295C244.759 91.0394 244.324 91.4613 244.324 91.9818V96.9047C244.324 97.4251 244.759 97.847 245.295 97.847H357.227C357.763 97.847 358.198 97.4251 358.198 96.9047V91.9818C358.198 91.4613 357.763 91.0394 357.227 91.0394Z" fill="#E1E5F0"/>
<path d="M359.144 22.7067H178.085C172.723 22.7067 168.377 26.9256 168.377 32.1299V72.1789C168.377 77.3832 172.723 81.6022 178.085 81.6022H359.144C364.506 81.6022 368.853 77.3832 368.853 72.1789V32.1299C368.853 26.9256 364.506 22.7067 359.144 22.7067Z" fill="#F2F6FB"/>
<path d="M203.594 69.1859C193.918 69.1859 186.075 61.5662 186.075 52.1668C186.075 42.7675 193.918 35.1478 203.594 35.1478C213.269 35.1478 221.113 42.7675 221.113 52.1668C221.113 61.5662 213.269 69.1859 203.594 69.1859ZM203.585 51.9369C205.97 51.9369 207.904 50.0834 207.904 47.7971C207.904 45.5108 205.97 43.6573 203.585 43.6573C201.199 43.6573 199.265 45.5108 199.265 47.7971C199.265 50.0834 201.199 51.9369 203.585 51.9369ZM203.585 54.0067C199.26 54.0067 195.755 57.3661 195.755 61.5101H211.414C211.414 57.3661 207.909 54.0067 203.585 54.0067ZM230.843 48.763H332.264C332.8 48.763 333.234 49.1849 333.234 49.7054V54.6283C333.234 55.1488 332.8 55.5706 332.264 55.5706H230.843C230.307 55.5706 229.872 55.1488 229.872 54.6283V49.7054C229.872 49.1849 230.307 48.763 230.843 48.763ZM230.843 59.8254H349.783C350.319 59.8254 350.753 60.2473 350.753 60.7677V65.6907C350.753 66.2111 350.319 66.633 349.783 66.633H230.843C230.307 66.633 229.872 66.2111 229.872 65.6907V60.7677C229.872 60.2473 230.307 59.8254 230.843 59.8254Z" fill="#D8DEED"/>
<path d="M307.737 37.7008H230.843C230.307 37.7008 229.872 38.1227 229.872 38.6431V43.5661C229.872 44.0865 230.307 44.5084 230.843 44.5084H307.737C308.273 44.5084 308.708 44.0865 308.708 43.5661V38.6431C308.708 38.1227 308.273 37.7008 307.737 37.7008Z" fill="#E1E5F0"/>
<path d="M436.512 134.032H240.267C234.245 134.032 229.364 138.393 229.364 143.773V269.429C229.364 274.809 234.245 279.17 240.267 279.17H436.512C442.533 279.17 447.414 274.809 447.414 269.429V143.773C447.414 138.393 442.533 134.032 436.512 134.032Z" fill="#F2F6FB"/>
<path d="M264.007 192.415C253.141 192.415 244.333 184.539 244.333 174.823C244.333 165.107 253.141 157.23 264.007 157.23C274.872 157.23 283.681 165.107 283.681 174.823C283.681 184.539 274.872 192.415 264.007 192.415ZM263.997 174.585C266.676 174.585 268.848 172.669 268.848 170.306C268.848 167.942 266.676 166.026 263.997 166.026C261.317 166.026 259.145 167.942 259.145 170.306C259.145 172.669 261.317 174.585 263.997 174.585ZM263.997 176.725C259.141 176.725 255.204 180.197 255.204 184.481H272.789C272.789 180.197 268.853 176.725 263.997 176.725ZM264.007 257.507C253.141 257.507 244.333 249.631 244.333 239.915C244.333 230.199 253.141 222.322 264.007 222.322C274.872 222.322 283.681 230.199 283.681 239.915C283.681 249.631 274.872 257.507 264.007 257.507ZM263.997 239.677C266.676 239.677 268.848 237.761 268.848 235.398C268.848 233.034 266.676 231.118 263.997 231.118C261.317 231.118 259.145 233.034 259.145 235.398C259.145 237.761 261.317 239.677 263.997 239.677ZM263.997 241.817C259.141 241.817 255.204 245.289 255.204 249.573H272.789C272.789 245.289 268.853 241.817 263.997 241.817ZM294.608 236.396H398.667C399.27 236.396 399.758 236.832 399.758 237.37V242.459C399.758 242.997 399.27 243.433 398.667 243.433H294.608C294.006 243.433 293.518 242.997 293.518 242.459V237.37C293.518 236.832 294.006 236.396 294.608 236.396ZM294.608 247.831H388.83C389.433 247.831 389.921 248.267 389.921 248.805V253.894C389.921 254.432 389.433 254.868 388.83 254.868H294.608C294.006 254.868 293.518 254.432 293.518 253.894V248.805C293.518 248.267 294.006 247.831 294.608 247.831Z" fill="#D8DEED"/>
<path d="M401.453 157.23H295.698C294.494 157.23 293.518 158.102 293.518 159.178V208.059C293.518 209.135 294.494 210.008 295.698 210.008H401.453C402.657 210.008 403.633 209.135 403.633 208.059V159.178C403.633 158.102 402.657 157.23 401.453 157.23Z" fill="#FED385"/>
<path fill-rule="evenodd" clip-rule="evenodd" d="M349.46 192.37L348.426 192.382L348.435 192.37H334.902C334.298 192.37 334.064 192.003 334.383 191.545L343.786 178.045C344.103 177.59 344.631 177.587 344.962 178.034L351.853 187.453L354.331 183.887C354.649 183.43 355.18 183.415 355.526 183.865L361.27 191.325C361.613 191.769 361.407 192.143 360.799 192.16L356.012 192.292L355.222 192.302L355.268 192.37C355.268 192.37 354.78 192.37 354.174 192.37H349.46ZM355.133 179.84C353.866 179.84 352.839 178.914 352.839 177.771C352.839 176.628 353.866 175.702 355.133 175.702C356.4 175.702 357.427 176.628 357.427 177.771C357.427 178.914 356.4 179.84 355.133 179.84Z" fill="white"/>
<path d="M410.472 224.961H294.608C294.006 224.961 293.518 225.397 293.518 225.935V231.024C293.518 231.562 294.006 231.998 294.608 231.998H410.472C411.074 231.998 411.562 231.562 411.562 231.024V225.935C411.562 225.397 411.074 224.961 410.472 224.961Z" fill="#E1E5F0"/>
<path d="M430.864 284.515H226.216C220.923 284.515 216.631 289.038 216.631 294.618V323.41C216.631 328.99 220.923 333.513 226.216 333.513H430.864C436.158 333.513 440.449 328.99 440.449 323.41V294.618C440.449 289.038 436.158 284.515 430.864 284.515Z" fill="#D8DEED"/>
<path d="M389.647 302.194H418.403C419.934 302.194 421.296 302.555 422.432 303.214C423.569 303.873 424.478 304.832 425.104 306.029C425.73 307.227 426.071 308.663 426.071 310.277C426.071 311.89 425.73 313.326 425.104 314.524C424.478 315.721 423.569 316.68 422.432 317.339C421.296 317.999 419.934 318.359 418.403 318.359H389.647C388.116 318.359 386.753 317.999 385.617 317.339C384.481 316.68 383.571 315.721 382.946 314.524C382.32 313.326 381.979 311.89 381.979 310.277C381.979 308.663 382.32 307.227 382.946 306.029C383.571 304.832 384.481 303.873 385.617 303.214C386.753 302.555 388.116 302.194 389.647 302.194Z" fill="#F08015"/>
<path d="M364.246 302.194H236.76C235.702 302.194 234.843 303.099 234.843 304.215V316.338C234.843 317.454 235.702 318.359 236.76 318.359H364.246C365.304 318.359 366.163 317.454 366.163 316.338V304.215C366.163 303.099 365.304 302.194 364.246 302.194Z" fill="white"/>
<path d="M555 236.014H529.73V263.178H555V236.014Z" fill="#DFDFDF"/>
<path d="M555 236.014H529.73V237.893H555V236.014Z" fill="#F3F3F3"/>
<path d="M431.88 246.779H370.274V262.238H431.88V246.779Z" fill="#F3F3F3"/>
<path d="M380.326 259.421C383.892 259.421 386.782 257.157 386.782 254.364C386.782 251.571 383.892 249.307 380.326 249.307C376.761 249.307 373.87 251.571 373.87 254.364C373.87 257.157 376.761 259.421 380.326 259.421Z" fill="#DFDFDF"/>
<path d="M427.361 249.596H391.209V251.33H427.361V249.596Z" fill="#DFDFDF"/>
<path d="M403.382 253.641H391.209V255.375H403.382V253.641Z" fill="#DFDFDF"/>
<path d="M384.64 252.33L379.312 256.504L377.107 254.776" stroke="#F3F3F3" stroke-width="6" stroke-miterlimit="10"/>
<path d="M431.88 265.706H370.274V281.166H431.88V265.706Z" fill="#F3F3F3"/>
<path d="M380.326 278.349C383.892 278.349 386.782 276.085 386.782 273.292C386.782 270.499 383.892 268.235 380.326 268.235C376.761 268.235 373.87 270.499 373.87 273.292C373.87 276.085 376.761 278.349 380.326 278.349Z" fill="#DFDFDF"/>
<path d="M427.361 268.523H391.209V270.257H427.361V268.523Z" fill="#DFDFDF"/>
<path d="M403.382 272.569H391.209V274.303H403.382V272.569Z" fill="#DFDFDF"/>
<path d="M384.64 271.258L379.312 275.432L377.107 273.704" stroke="#F3F3F3" stroke-width="6" stroke-miterlimit="10"/>
<path d="M431.88 284.634H370.274V300.094H431.88V284.634Z" fill="#F3F3F3"/>
<path d="M380.326 297.276C383.892 297.276 386.782 295.012 386.782 292.219C386.782 289.426 383.892 287.162 380.326 287.162C376.761 287.162 373.87 289.426 373.87 292.219C373.87 295.012 376.761 297.276 380.326 297.276Z" fill="#DFDFDF"/>
<path d="M427.361 287.451H391.209V289.185H427.361V287.451Z" fill="#DFDFDF"/>
<path d="M403.382 291.497H391.209V293.231H403.382V291.497Z" fill="#DFDFDF"/>
<path d="M384.64 290.185L379.312 294.357L377.107 292.631" stroke="#F3F3F3" stroke-width="6" stroke-miterlimit="10"/>
<path d="M550.02 240.494H524.75V267.657H550.02V240.494Z" fill="#F3F3F3"/>
<path d="M550.02 240.494H524.75V242.372H550.02V240.494Z" fill="#DFDFDF"/>
<path d="M547.437 245.694H527.517V246.995H547.437V245.694Z" fill="#DFDFDF"/>
<path d="M547.437 248.295H527.517V249.596H547.437V248.295Z" fill="#DFDFDF"/>
<path d="M547.437 250.896H527.517V252.197H547.437V250.896Z" fill="#DFDFDF"/>
<path d="M483.065 277.481C483.065 276.037 486.385 273.725 492.103 273.725C499.112 273.725 508.703 285.428 519.401 285.428C526.779 285.428 536.924 280.66 536.924 271.991" stroke="#DFDFDF" stroke-width="11" stroke-miterlimit="10" stroke-dasharray="22 22"/>
<path d="M443.3 311.228C443.029 312.239 438.69 336.657 446.147 359.342C447.368 359.631 447.232 356.018 447.232 356.018L445.876 324.954L446.554 313.251L443.3 311.228Z" fill="#DE8E68"/>
<path d="M463.639 402.11H450.487C450.487 402.11 446.012 352.84 446.012 351.829C446.826 352.696 446.69 352.985 450.08 353.996C452.114 356.308 466.487 394.741 466.487 394.741L463.639 402.11Z" fill="#131211"/>
<path d="M457.105 292.878C463.441 294.81 458.438 315.434 456.092 317.162C453.746 318.89 442.75 314.027 441.863 311.839C440.976 309.652 448.134 290.143 457.105 292.878Z" fill="#FCC486"/>
<path d="M462.826 287.388C483.029 287.388 483.436 349.228 480.588 351.829C477.741 354.429 448.588 356.886 446.012 351.829C443.436 346.772 440.86 287.388 462.826 287.388Z" fill="#FED385"/>
<path d="M470.148 291.578C475.436 287.388 487.775 304.148 487.639 307.182C487.504 310.217 477.199 316.574 475.029 315.996C472.86 315.418 462.66 297.51 470.148 291.578Z" fill="#FED892"/>
<path d="M485.741 307.76C490.758 316.574 492.114 328.277 492.114 330.3C492.114 335.79 489.537 338.535 487.91 338.535C481.402 338.535 459.978 320.908 458.487 319.463C456.995 318.018 461.334 313.684 462.012 314.406C462.69 315.129 470.419 320.33 481.673 325.532C480.046 323.364 475.3 316.863 475.165 314.84C475.029 312.817 485.741 307.76 485.741 307.76Z" fill="#DE8E68"/>
<path d="M455.568 303.541L447.097 304.903L449.288 320.375L457.759 319.013L455.568 303.541Z" fill="#333333"/>
<path d="M461.738 317.694C462.749 315.828 461.597 313.103 459.165 311.606C456.733 310.11 453.942 310.41 452.931 312.276C451.92 314.142 453.072 316.867 455.504 318.363C457.936 319.86 460.727 319.56 461.738 317.694Z" fill="#DE8E68"/>
<path d="M466.351 290.133C466.351 292.011 459.3 292.156 459.3 290.133V278.719H466.351V290.133Z" fill="#D37C59"/>
<path d="M460.995 285.509C464.852 285.509 467.978 279.59 467.978 272.289C467.978 264.987 464.852 259.068 460.995 259.068C457.139 259.068 454.012 264.987 454.012 272.289C454.012 279.59 457.139 285.509 460.995 285.509Z" fill="#DE8E68"/>
<path d="M467.504 276.118C468.515 276.118 469.334 275.245 469.334 274.167C469.334 273.09 468.515 272.217 467.504 272.217C466.493 272.217 465.673 273.09 465.673 274.167C465.673 275.245 466.493 276.118 467.504 276.118Z" fill="#DE8E68"/>
<path d="M491.3 257.191C486.012 257.191 481.673 261.236 475.978 261.236C471.91 261.236 467.978 256.035 462.283 256.035C454.961 256.035 452.656 260.225 452.656 263.115C452.656 265.426 454.012 268.027 454.419 268.027C454.419 267.305 455.232 264.704 455.504 264.415C455.775 265.426 461.47 272.506 466.487 272.506V272.547C466.762 272.35 467.083 272.237 467.414 272.22C467.745 272.202 468.074 272.281 468.367 272.447C468.659 272.614 468.904 272.862 469.074 273.165C469.245 273.468 469.335 273.814 469.335 274.168C469.335 274.521 469.245 274.868 469.074 275.171C468.904 275.474 468.659 275.722 468.367 275.888C468.074 276.055 467.745 276.133 467.414 276.116C467.083 276.098 466.762 275.985 466.487 275.789V280.019H467.843C469.605 280.019 470.419 279.297 473.131 279.297C477.876 279.297 484.52 285.51 492.656 285.51C501.47 285.51 505.131 278.43 505.131 270.483C505.131 259.936 495.775 257.191 491.3 257.191Z" fill="#131211"/>
<path d="M480.588 351.829V402.11H463.639L450.064 353.963C454.826 354.863 472.86 355.585 480.588 351.829Z" fill="#131211"/>
<path d="M230.58 154.745C230.042 155.213 229.331 155.47 228.574 155.403L190.09 151.993C188.577 151.859 187.453 150.483 187.581 148.92C187.71 147.357 189.04 146.198 190.554 146.332L229.038 149.742C230.551 149.876 231.675 151.252 231.546 152.815C231.482 153.597 231.118 154.277 230.58 154.745Z" fill="#563E2F"/>
<path d="M228.007 163.548C227.469 164.016 226.758 164.272 226.001 164.205L191.195 161.121C189.682 160.987 188.559 159.611 188.687 158.048C188.815 156.485 190.145 155.327 191.659 155.461L226.465 158.545C227.978 158.679 229.102 160.055 228.974 161.618C228.91 162.399 228.545 163.08 228.007 163.548Z" fill="#563E2F"/>
<path d="M224.944 172.271C224.406 172.74 223.695 172.996 222.938 172.929L192.797 170.258C191.283 170.124 190.16 168.748 190.288 167.185C190.416 165.621 191.747 164.463 193.26 164.597L223.401 167.268C224.915 167.402 226.038 168.778 225.91 170.341C225.846 171.123 225.481 171.803 224.944 172.271Z" fill="#563E2F"/>
<path d="M216.746 174.505L224.333 149.321C225.59 145.149 223.683 140.639 219.844 138.793C219.789 138.766 219.733 138.74 219.676 138.713C214.027 136.07 217.041 130.538 211.27 130.027C205.564 129.521 207.57 135.498 201.572 137.109C201.513 137.125 201.453 137.141 201.394 137.158C197.311 138.302 194.698 142.412 195.259 146.745L198.643 172.901L216.746 174.505Z" fill="#99573D"/>
<path d="M219.844 138.792C219.789 138.766 219.733 138.739 219.676 138.713C214.027 136.069 217.042 130.538 211.27 130.026C209.446 129.864 208.411 130.367 207.65 131.176C209.353 133.901 208.611 139.039 212.806 141.002C212.863 141.029 212.806 141.002 212.862 141.029C216.7 142.875 218.607 147.385 217.35 151.557L210.169 173.921L216.746 174.504L224.333 149.321C225.59 145.149 223.683 140.638 219.844 138.792Z" fill="#894C37"/>
<path d="M192.27 362.119C213.093 363.964 242.856 359.844 248.804 328.915C252.788 308.199 241.319 300.42 237.86 289.217C234.401 278.014 240.52 273.891 242.071 258.785C244.012 239.884 230.626 223.212 203.836 220.838C177.046 218.464 161.143 232.541 159.983 251.512C159.056 266.672 164.417 271.813 159.187 282.246C153.957 292.678 141.388 298.328 141.948 319.447C142.783 350.976 171.447 360.274 192.27 362.119Z" fill="#FCC472"/>
<path d="M237.86 289.216C234.401 278.014 240.521 273.89 242.071 258.785C244.012 239.883 230.626 223.211 203.836 220.837C202.718 220.738 201.621 220.67 200.541 220.628C225.137 224.026 237.354 240.09 235.494 258.202C233.944 273.308 227.824 277.431 231.283 288.634C234.742 299.836 246.211 307.616 242.227 328.332C236.586 357.664 209.527 362.884 188.987 361.77C190.099 361.908 191.196 362.024 192.271 362.119C213.094 363.964 242.857 359.844 248.805 328.915C252.788 308.199 241.319 300.419 237.86 289.216Z" fill="#F4B158"/>
<path d="M217.654 283.104C218.532 272.385 210.828 262.949 200.448 262.029C190.068 261.109 180.941 269.054 180.064 279.773C179.186 290.493 186.89 299.928 197.27 300.848C207.651 301.768 216.777 293.824 217.654 283.104Z" fill="#563E2F"/>
<path d="M200.465 262.016C199.342 261.917 198.236 261.927 197.152 262.027C205.833 264.415 211.88 272.95 211.097 282.512C210.314 292.074 202.968 299.422 194.023 300.248C195.075 300.537 196.164 300.742 197.286 300.841C207.668 301.761 216.796 293.816 217.674 283.095C218.552 272.373 210.847 262.936 200.465 262.016Z" fill="#4C362A"/>
<path d="M214.989 325.725L175.794 322.252C173.731 322.069 172.2 320.194 172.374 318.063L172.746 313.524C172.92 311.393 174.734 309.814 176.798 309.997L215.993 313.47C218.056 313.653 219.587 315.528 219.412 317.658L219.041 322.198C218.866 324.328 217.053 325.907 214.989 325.725Z" fill="#563E2F"/>
<path d="M215.993 313.47L209.415 312.887C211.479 313.07 213.01 314.945 212.835 317.076L212.464 321.615C212.289 323.746 210.475 325.325 208.412 325.142L214.989 325.725C217.053 325.907 218.867 324.328 219.041 322.198L219.412 317.659C219.587 315.528 218.056 313.653 215.993 313.47Z" fill="#4C362A"/>
<path d="M216.745 174.504L215.689 187.448L215.225 193.109L214.157 206.162L213.691 211.821L212.159 230.536L211.09 243.588L210.629 249.248L209.319 265.216C206.76 263.45 203.746 262.306 200.465 262.016C197.184 261.725 194.027 262.321 191.218 263.612L192.528 247.644L192.988 241.984L194.057 228.931L195.589 210.217L196.055 204.558L197.587 185.844L198.644 172.9L216.745 174.504Z" fill="#725539"/>
<path d="M209.321 265.215L216.747 174.504L210.169 173.921L202.926 262.404C205.258 262.934 207.415 263.902 209.321 265.215Z" fill="#6B4C32"/>
<path d="M197.117 191.527L197.58 185.866L215.679 187.469L215.216 193.13L197.117 191.527Z" fill="#563E2F"/>
<path d="M195.524 210.203L195.987 204.545L214.086 206.149L213.623 211.807L195.524 210.203Z" fill="#563E2F"/>
<path d="M194.046 228.948L194.51 223.287L212.609 224.891L212.145 230.552L194.046 228.948Z" fill="#563E2F"/>
<path d="M192.558 247.702L193.022 242.044L211.121 243.648L210.657 249.306L192.558 247.702Z" fill="#563E2F"/>
<path d="M194.682 356.785L212.094 354.038L213.58 362.743L196.168 365.49L194.682 356.785Z" fill="#DE8E68"/>
<path d="M109.136 333.421L120.076 341.561L114.459 348.537L103.519 340.397L109.136 333.421Z" fill="#DE8E68"/>
<path d="M141.702 357.875V209.95" stroke="#FD8369" stroke-width="6" stroke-miterlimit="10" stroke-linecap="round"/>
<path d="M163.839 278.763C164.301 281.08 124.175 342.976 120.962 342.976C116.843 342.976 107.384 336.184 107.384 334.266C107.384 332.348 125.455 287.766 125.455 280.238C125.455 272.709 159.875 258.826 163.839 278.763Z" fill="black"/>
<path d="M169.378 372.774V209.95" stroke="#FD8369" stroke-width="6" stroke-miterlimit="10" stroke-linecap="round"/>
<path d="M39.8539 262.194C39.8539 257.559 110.285 230.17 159.869 230.17C188.845 230.17 212.553 352.977 212.553 355.094C210.229 355.755 194.507 357.875 194.507 357.875C194.507 357.875 155.121 280.062 154.026 274.768C150.06 277.414 100.099 302.556 80.8104 302.556C59.6696 302.556 39.8539 281.517 39.8539 262.194Z" fill="black"/>
<path d="M7.31114e-05 155.353L10.5193 152.97L50.8461 317.476L40.3269 319.859L7.31114e-05 155.353Z" fill="#FD8369"/>
<path d="M40.3363 319.877L37.8574 309.764L136.293 287.465L138.772 297.577L40.3363 319.877Z" fill="#FD8369"/>
<path d="M117.347 97.1439H169.378V132.263H117.347V97.1439Z" fill="#FD8519"/>
<path d="M107.384 114.703L129.525 108.85V120.556L107.384 114.703Z" fill="#FD8519"/>
<path d="M155.54 117.363C154.623 117.363 153.88 116.172 153.88 114.703C153.88 113.234 154.623 112.042 155.54 112.042C156.457 112.042 157.201 113.234 157.201 114.703C157.201 116.172 156.457 117.363 155.54 117.363Z" fill="#131211"/>
<path d="M143.363 117.363C142.446 117.363 141.702 116.172 141.702 114.703C141.702 113.234 142.446 112.042 143.363 112.042C144.28 112.042 145.023 113.234 145.023 114.703C145.023 116.172 144.28 117.363 143.363 117.363Z" fill="#131211"/>
<path d="M131.185 117.363C130.268 117.363 129.525 116.172 129.525 114.703C129.525 113.234 130.268 112.042 131.185 112.042C132.102 112.042 132.846 113.234 132.846 114.703C132.846 116.172 132.102 117.363 131.185 117.363Z" fill="#131211"/>
<path d="M41.5896 132.262C27.0426 132.262 21.034 147.105 21.034 157.618C21.034 206.166 31.2549 254.751 37.1622 258.424C47.5981 264.918 96.337 249.457 100.726 239.253C105.786 227.502 95.0341 132.262 41.5896 132.262Z" fill="#FED385"/>
<path d="M39.323 110.637C39.6566 112.425 38.9894 127.619 34.3185 137.153C35.9867 139.537 51.3337 144.899 58.6736 139.537C58.0063 134.77 57.6727 127.024 58.34 122.555C59.0072 118.086 46.9965 108.85 46.9965 108.85L39.323 110.637Z" fill="#D37C59"/>
<path d="M60.3342 123.749C50.8574 123.749 43.1749 111.838 43.1749 97.1439C43.1749 82.4502 50.8574 70.5386 60.3342 70.5386C69.811 70.5386 77.4934 82.4502 77.4934 97.1439C77.4934 111.838 69.811 123.749 60.3342 123.749Z" fill="#DE8E68"/>
<path d="M66.6463 52.4463C59.4893 52.4463 54.1216 59.0332 49.7298 61.2288C42.2475 64.9928 24.3551 64.3655 24.3551 77.5393C24.3551 86.9491 27.9336 89.4584 27.9336 93.8497C27.9336 96.359 27.283 97.3 27.283 102.319C27.283 108.906 34.1146 112.042 37.6931 112.042C50.3805 112.042 53.5718 98.0402 54.9349 94.7907C60.4653 81.6169 70.8754 83.1852 74.1286 83.1852C75.7552 86.0082 77.0564 91.6541 77.0564 91.6541C95.9248 91.6541 98.5273 79.4212 98.5273 75.03C98.5273 63.4245 87.7919 63.1108 83.2375 60.6015C78.0519 57.744 74.1286 52.4463 66.6463 52.4463Z" fill="#FD8369"/>
<path d="M45.9425 105.658C42.5798 105.658 39.8537 103.037 39.8537 99.8044C39.8537 96.5718 42.5798 93.9513 45.9425 93.9513C49.3052 93.9513 52.0312 96.5718 52.0312 99.8044C52.0312 103.037 49.3052 105.658 45.9425 105.658Z" fill="#DE8E68"/>
<path d="M62.3525 189.315C63.2975 191.261 68.0223 201.968 68.6523 211.702C73.3772 209.755 118.736 188.666 127.24 188.666C143.935 188.666 148.344 194.182 148.344 196.777C148.344 201.644 127.87 200.995 125.035 202.617C122.2 204.24 66.1324 241.876 59.2027 241.876C52.2729 241.876 34.9485 211.378 34.3185 203.915" fill="#DE8E68"/>
<path d="M29.3271 151.211C13.4282 158.448 23.9818 206.434 31.3316 206.751C38.6814 207.069 65.4079 193.739 67.4124 189.613C69.4169 185.488 45.363 143.912 29.3271 151.211Z" fill="#FED892"/>
<path d="M132.846 203.565H298.903V209.95H132.846V203.565Z" fill="#FD8369"/>
<path d="M286.725 372.774V209.95" stroke="#FD8369" stroke-width="6" stroke-miterlimit="10" stroke-linecap="round"/>
<path d="M259.049 357.875V209.95" stroke="#FD8369" stroke-width="6" stroke-miterlimit="10" stroke-linecap="round"/>
<path d="M141.702 200.372H178.235V203.564H141.702V200.372Z" fill="#FD8519"/>
<path d="M194.721 157.306L177.781 202.913L176.778 202.569L193.718 156.962L194.721 157.306Z" fill="#FD8519"/>
<path d="M58.6736 313.177L34.3185 378.094" stroke="#FD8369" stroke-width="6" stroke-miterlimit="10" stroke-linecap="round"/>
<path d="M79.7075 309.985L132.846 374.902" stroke="#FD8369" stroke-width="6" stroke-miterlimit="10" stroke-linecap="round"/>
<path d="M117.347 301.472L166.057 366.389" stroke="#FD8369" stroke-width="6" stroke-miterlimit="10" stroke-linecap="round"/>
<path d="M92.9922 306.793L67.5301 372.774" stroke="#FD8369" stroke-width="6" stroke-miterlimit="10" stroke-linecap="round"/>
<path d="M197.055 364.374L215.939 361.067L245.619 369.498L246.872 373.55L199.921 381.287L197.055 364.374Z" fill="black"/>
<path d="M105.211 336.591L116.956 347.011L129.525 375.358L127.448 378.095L95.2062 346.243L105.211 336.591Z" fill="black"/>
<path d="M435.9 126.026H433.335V130.466H435.9V126.026Z" fill="#DE8E68"/>
<path d="M466.124 144.782H463.559V149.223H466.124V144.782Z" fill="#DE8E68"/>
<path d="M452.16 84.935C449.059 84.935 435.213 100.648 434.006 103.289C432.799 105.93 433.151 126.619 433.151 126.619L436.135 127.27L440.979 107.997C443.092 107.71 451.976 105.528 456.569 101.299C461.162 97.0498 456.133 87.5761 456.133 87.5761L452.16 84.935Z" fill="black"/>
<path d="M446.981 63.5955C445.455 65.1457 442.404 69.0309 442.153 69.5285C441.382 69.1074 433.352 64.2845 432.749 63.9782C432.145 63.672 430.871 61.2414 430.435 61.2414C430.184 61.2414 429.949 61.7964 429.949 62.1792C429.949 62.8299 430.217 63.3275 430.385 63.538C429.815 63.4423 424.786 63.0022 424.786 63.3849C424.786 64.3801 430.419 65.7007 430.854 65.9687C431.29 66.2366 440.46 75.9208 443.645 75.9208C444.885 75.9208 450.367 71.672 450.367 71.2127C450.886 70.8108 451.691 70.2175 451.691 70.2175V66.849L449.78 65.2605C449.78 65.2414 447.282 63.2892 446.981 63.5955Z" fill="#DE8E68"/>
<path d="M446.779 62.4856C447.115 59.3851 453.367 52.342 456.234 55.4808C458.732 58.2176 454.206 67.9975 453.049 68.3803C451.741 68.5334 446.696 64.5908 446.779 62.4856Z" fill="#FEBF92"/>
<path d="M465.856 56.0357C469.041 54.5046 473.5 62.9257 472.997 65.9879C472.997 67.3277 466.459 70.1985 465.454 69.4329C464.448 68.6674 462.671 57.5668 465.856 56.0357Z" fill="#FED892"/>
<path d="M453.015 86.2939L463.543 144.763H466.241L467.197 92.6096C467.197 91.7101 467.13 86.0451 467.13 85.3178C464.079 86.3321 457.575 87.136 453.015 86.2939Z" fill="#131211"/>
<path d="M463.559 149.222H466.124V152.399H459.05L463.559 149.222Z" fill="black"/>
<path d="M433.335 130.467H435.9V133.644H428.826L433.335 130.467Z" fill="black"/>
<path d="M458.882 51.5381C466.761 51.5381 469.51 59.0214 469.51 61.4521C469.51 63.8827 467.046 78.7153 467.147 85.3182C467.163 86.4091 453.015 87.3852 451.088 85.7966C450.182 85.0502 448.238 51.5381 458.882 51.5381Z" fill="#FECC92"/>
<path d="M472.997 65.9879C475.227 69.8922 475.092 78.8875 475.092 80.2463C475.092 81.6052 466.778 93.8158 466.057 93.8158C465.621 93.3182 464.414 91.8062 464.414 91.3469C464.8 90.5431 469.745 78.1985 470.633 77.3181C470.231 76.7631 466.694 70.4281 466.543 69.3755C469.644 68.7822 472.645 67.2893 472.997 65.9879Z" fill="#DE8E68"/>
<path d="M472.997 65.9881C473.5 62.9259 469.427 54.0455 465.856 56.0359C462.755 57.7776 464.448 68.6675 465.454 69.4331C466.661 70.0264 472.528 68.0168 472.997 65.9881Z" fill="#FED892"/>
<path d="M456.871 49.7011C456.703 50.2944 456.619 52.1317 456.804 52.9547C456.821 52.993 460.156 53.28 460.525 52.6102C460.542 52.0552 461.347 47.1174 462.436 45.5863C462.537 45.414 462.319 44.9355 462.319 44.9355L458.447 46.7729L456.871 49.7011Z" fill="#D38466"/>
<path d="M461.883 45.3565C462.135 45.7392 462.453 45.9115 462.738 45.9115C463.375 45.9115 464.85 45.2416 464.85 42.8493C464.85 41.1268 463.375 40.2464 463.375 39.4234C463.375 38.6388 463.559 38.6196 463.559 37.9689C463.559 37.6435 463.274 36.5718 462.386 36.5718C461.883 36.5718 461.699 37.0502 461.196 37.0502C460.643 37.0502 460.14 35.8253 459.302 35.8253C458.732 35.8253 458.195 36.4378 457.592 36.4378C456.904 36.4378 456.435 35.2703 455.48 35.2703C454.491 35.2703 454.138 36.2847 453.753 36.2847C453.267 36.2847 453.183 36.1316 452.697 36.1316C452.395 36.1316 451.473 36.744 451.473 37.8541C451.473 38.6388 451.758 39.921 453.183 39.921C454.021 39.921 454.491 41.433 455.228 41.433C455.513 41.433 455.765 41.1651 455.832 41.299C456.117 41.8732 456.703 43.4426 456.703 43.4426L459.369 45.1459L461.883 45.3565Z" fill="#FD8369"/>
<path d="M461.296 44.5714C461.296 44.8393 461.213 44.8967 460.861 44.8967C460.693 44.8967 460.458 44.6479 460.458 44.38C460.458 43.7484 460.861 43.6144 460.861 42.7915C460.861 41.3944 457.659 40.6671 456.536 39.9398C456.133 40.3991 455.848 40.9924 455.731 41.6623L455.01 45.8919C454.692 47.7292 455.748 49.5091 457.34 49.8728C458.933 50.2364 460.509 49.0307 460.827 47.2125L460.944 46.4852C461.011 46.5044 461.078 46.5235 461.129 46.5235C461.548 46.5235 461.866 46.0833 461.866 45.5474C461.9 45.0498 461.296 44.1695 461.296 44.5714Z" fill="#DE8E68"/>
</svg>
