<svg width="555" height="400" viewBox="0 0 555 400" fill="none" xmlns="http://www.w3.org/2000/svg">
<path d="M415.944 113.285C464.623 159.436 523.987 197.097 520.768 231.547C517.55 265.911 451.765 296.982 378.859 325.108C305.841 353.268 225.815 378.484 163.208 362.688C100.601 346.892 55.3901 289.919 42.3071 232.396C29.2241 174.874 47.9635 116.658 94.8159 70.8424C141.668 25.0266 216.401 -8.60324 272.884 1.94832C329.368 12.4999 367.265 67.0538 415.944 113.285Z" fill="#F2F6FB"/>
<path d="M394.648 10.8108H37.2067V320.161H394.648V10.8108Z" fill="#C4C4C4"/>
<path d="M394.648 10.8108H37.2067V34.3581H394.648V10.8108Z" fill="#FFA511"/>
<path d="M56.0685 26.5952C58.4015 26.5952 60.2928 24.9347 60.2928 22.8864C60.2928 20.838 58.4015 19.1775 56.0685 19.1775C53.7355 19.1775 51.8442 20.838 51.8442 22.8864C51.8442 24.9347 53.7355 26.5952 56.0685 26.5952Z" fill="#FD8369"/>
<path d="M69.6747 26.5952C72.0077 26.5952 73.8989 24.9347 73.8989 22.8864C73.8989 20.838 72.0077 19.1775 69.6747 19.1775C67.3417 19.1775 65.4504 20.838 65.4504 22.8864C65.4504 24.9347 67.3417 26.5952 69.6747 26.5952Z" fill="#FD8369"/>
<path d="M83.2807 26.5952C85.6137 26.5952 87.505 24.9347 87.505 22.8864C87.505 20.838 85.6137 19.1775 83.2807 19.1775C80.9477 19.1775 79.0564 20.838 79.0564 22.8864C79.0564 24.9347 80.9477 26.5952 83.2807 26.5952Z" fill="#FD8369"/>
<path d="M197.581 51.5228H54.6931V119.491H197.581V51.5228Z" fill="white"/>
<path d="M197.581 135.62H54.6931V203.588H197.581V135.62Z" fill="white"/>
<path d="M375.246 135.62H232.358V282.209H375.246V135.62Z" fill="white"/>
<path d="M418.57 56.439H222.387V62.9944H418.57V56.439Z" fill="#FFA511"/>
<path d="M418.57 74.9406H222.387V81.4959H418.57V74.9406Z" fill="#FFA511"/>
<path d="M418.57 93.4421H222.387V99.9973H418.57V93.4421Z" fill="#FFA511"/>
<path d="M418.57 111.944H222.387V118.499H418.57V111.944Z" fill="#FFA511"/>
<path d="M332.828 322.561V380.508" stroke="#A4A4A4" stroke-width="3" stroke-linecap="round" stroke-linejoin="round"/>
<path d="M359.861 261.789H358.054C356.413 261.789 355.083 263.034 355.083 264.57V269.21C355.083 270.746 356.413 271.991 358.054 271.991H359.861C361.502 271.991 362.832 270.746 362.832 269.21V264.57C362.832 263.034 361.502 261.789 359.861 261.789Z" fill="#6BD5E1"/>
<path d="M329.09 385.752C328.816 386.394 326.942 390.331 326.942 390.331L332.997 392.491L334.804 386.864L329.09 385.752Z" fill="#E49D75"/>
<path d="M363.765 380.185L365.01 384.487L359.559 386.983L355.965 383.481L363.765 380.185Z" fill="#E49D75"/>
<path d="M355.952 297.766C355.331 298.438 350.184 304.218 349.816 304.674C349.447 305.131 334.378 309.418 333.583 309.617C332.789 309.817 329.932 310.98 329.128 310.98C328.323 310.98 325.741 310.181 324.672 310.345C323.602 310.51 320.188 312.38 320.518 313.126C320.847 313.872 357.703 311.381 357.703 311.381L361.721 299.675L355.952 297.766Z" fill="#D38D6A"/>
<path d="M363.181 351.766L353.816 396.929" stroke="#E0E0E0" stroke-width="2" stroke-linecap="round" stroke-linejoin="round"/>
<path d="M397.693 278.069H418.873L398.787 351.766H359.968V346.969L381.703 333.458L397.693 278.069Z" fill="#E0E0E0"/>
<path d="M353.824 347.539C354.898 349.594 363.973 378.452 364.208 380.13C363.052 381.265 358.039 383.791 355.898 383.956C352.271 381.284 342.109 358.846 342.109 358.846C342.109 358.846 345.57 340.229 353.824 347.539Z" fill="black" fill-opacity="0.5"/>
<path d="M397.527 320.048C398.314 320.924 400.861 333.854 401.24 337.198C401.822 342.454 390.937 350.153 375.571 350.153C370.499 350.153 353.705 349.094 348.88 347.388C348.632 350.245 336.467 385.884 335.089 387.175C332.823 387.729 329.474 386.577 328.637 385.784C327.801 384.992 334.45 335.759 336.311 332.579C338.173 329.399 376.103 327.01 376.103 327.01L397.527 320.048Z" fill="#131211" fill-opacity="0.85"/>
<path d="M371.197 283.145C378.319 287.036 367.669 304.032 366.322 304.466C364.176 304.234 356.702 300.144 355.301 297.133C354.999 295.284 365.114 279.819 371.197 283.145Z" fill="#FFC78E"/>
<path d="M375.143 276.09C387.048 276.09 398.512 318.637 398.042 320.341C397.079 323.833 377.576 330.22 374.447 327.476C366.533 320.542 351.937 276.09 375.143 276.09Z" fill="#FFD98E"/>
<path d="M396.549 351.766L405.914 396.929" stroke="#E0E0E0" stroke-width="2" stroke-linecap="round" stroke-linejoin="round"/>
<path d="M333.455 392.663L330.348 400L313.576 393.003L315.242 389.861L327.491 390.201L333.455 392.663Z" fill="black"/>
<path d="M365.112 383.956L369.234 390.841L352.853 398.61L351.301 395.414L359.312 386.735L365.112 383.956Z" fill="black"/>
<path d="M372.323 271.404C372.593 272.813 374.304 277.061 375.046 277.84C375.789 278.619 371.791 283.17 367.345 282.336C367.211 280.906 366.684 276.857 365.986 276.185C365.288 275.513 372.323 271.404 372.323 271.404Z" fill="#D38D6A"/>
<path d="M368.396 276.182C373.226 274.707 375.405 268.533 373.265 262.393C371.125 256.253 365.475 252.471 360.646 253.946C355.816 255.421 353.637 261.595 355.777 267.735C357.918 273.876 363.567 277.657 368.396 276.182Z" fill="#E49D75"/>
<path d="M357.198 249.145C362.129 249.145 374.801 257.346 374.801 265.599C374.801 270.027 373.964 271.161 373.648 271.161C373.331 271.161 370.271 268.938 370.271 267.341C370.271 265.745 369.669 263.383 369.083 263.383C368.092 263.383 367.946 264.414 365.456 264.414C364.503 264.414 362.713 263.351 362.713 262.129C360.691 262.162 360.691 262.788 357.916 262.788C354.772 262.788 347.048 261.3 347.048 259.015C347.048 257.467 349.204 256.401 351.328 256.778C349.89 256.058 348.605 254.57 348.605 253.585C348.605 252.206 350.462 251.253 351.9 251.253C353.606 251.253 355.076 251.926 355.811 252.584C355.225 251.634 355.804 249.145 357.198 249.145Z" fill="#FD8369"/>
<path d="M368.689 268.097C370.101 268.097 371.246 267.025 371.246 265.703C371.246 264.381 370.101 263.309 368.689 263.309C367.277 263.309 366.132 264.381 366.132 265.703C366.132 267.025 367.277 268.097 368.689 268.097Z" fill="#E49D75"/>
<path d="M359.173 319.193H230.789V322.563H359.173V319.193Z" fill="#A4A4A4"/>
<path d="M348.13 313.72H294.98H294.846H241.697L230.789 319.163H294.846H294.98H359.039L348.13 313.72Z" fill="#E0E0E0"/>
<path d="M246.957 322.561V393.235" stroke="#A4A4A4" stroke-width="3" stroke-linecap="round" stroke-linejoin="round"/>
<path d="M257.132 322.561V380.508" stroke="#A4A4A4" stroke-width="3" stroke-linecap="round" stroke-linejoin="round"/>
<path d="M343.005 322.561V393.235" stroke="#A4A4A4" stroke-width="3" stroke-linecap="round" stroke-linejoin="round"/>
<path d="M329.266 314.097H306.504V315.557H329.266V314.097Z" fill="#A4A4A4"/>
<path d="M282.377 312.28H278.02V317.135H282.377V312.28Z" fill="#A4A4A4"/>
<path d="M323.372 318.528C326.191 318.528 328.476 317.528 328.476 316.294C328.476 315.06 326.191 314.06 323.372 314.06C320.553 314.06 318.267 315.06 318.267 316.294C318.267 317.528 320.553 318.528 323.372 318.528Z" fill="#F2F2F2"/>
<path d="M359.581 300.088C358.839 300.846 354.294 306.964 353.804 307.611C343.406 308.746 329.667 311.868 329.162 311.884C328.657 311.9 322.879 310.148 322.104 310.276C321.329 310.403 319.745 313.003 319.812 313.539C319.879 314.074 324.429 316.646 329.667 316.582C330.657 316.519 330.982 316.014 332.009 316.014C333.036 316.014 356.517 317.712 360.592 315.719C362.807 314.633 369.033 306.436 369.033 305.821C369.033 305.207 359.581 300.088 359.581 300.088Z" fill="#E49D75"/>
<path d="M374.403 285.128C381.522 289.02 370.875 306.016 369.528 306.45C367.38 306.218 359.908 302.127 358.505 299.117C358.203 297.268 368.318 281.803 374.403 285.128Z" fill="#FFE4AD"/>
<path d="M276.413 252.028H274.327V314.918H276.413V252.028Z" fill="#E0E0E0"/>
<path d="M276.411 252.028V283.471V314.918L286.279 311.539V283.471V255.404L276.411 252.028Z" fill="black"/>
<path d="M369.397 261.789H367.59C365.949 261.789 364.619 263.034 364.619 264.57V269.21C364.619 270.746 365.949 271.991 367.59 271.991H369.397C371.038 271.991 372.368 270.746 372.368 269.21V264.57C372.368 263.034 371.038 261.789 369.397 261.789Z" fill="#6BD5E1"/>
<path d="M368.689 263.075C368.689 261.789 369.164 254.213 364.619 251.977" stroke="#6BD5E1" stroke-width="6" stroke-linecap="round" stroke-linejoin="round"/>
<path d="M368.494 271.991C368.494 272.73 368.182 276.922 364.78 276.922" stroke="#A4A4A4" stroke-width="6" stroke-linecap="round" stroke-linejoin="round"/>
<path d="M530.764 285.06V376.184C530.764 379.381 529.352 382.448 526.84 384.709C524.328 386.97 520.92 388.241 517.367 388.241H438.664C435.111 388.241 431.703 386.97 429.191 384.709C426.679 382.448 425.267 379.381 425.267 376.184V195.36C425.268 192.163 426.679 189.096 429.192 186.835C431.704 184.574 435.111 183.304 438.664 183.303H517.367C520.92 183.304 524.327 184.574 526.839 186.835C529.351 189.096 530.763 192.163 530.764 195.36V285.06Z" fill="#FFF8EB"/>
<path d="M501.117 178.544H454.912C453.141 178.544 451.705 179.836 451.705 181.43V187.481C451.705 189.075 453.141 190.367 454.912 190.367H501.117C502.888 190.367 504.324 189.075 504.324 187.481V181.43C504.324 179.836 502.888 178.544 501.117 178.544Z" fill="#FFA511"/>
<path d="M517.771 176.814H438.256C433.114 176.817 428.184 178.657 424.549 181.93C420.915 185.204 418.873 189.642 418.873 194.269V377.265C418.873 381.893 420.915 386.331 424.549 389.604C428.184 392.877 433.114 394.718 438.256 394.721H517.771C522.915 394.721 527.848 392.882 531.485 389.608C535.123 386.335 537.166 381.895 537.166 377.265V194.269C537.166 189.64 535.123 185.2 531.485 181.926C527.848 178.653 522.915 176.814 517.771 176.814ZM530.764 285.06V376.184C530.764 379.381 529.352 382.448 526.84 384.709C524.328 386.97 520.92 388.241 517.367 388.241H438.664C435.111 388.241 431.703 386.97 429.191 384.709C426.679 382.448 425.267 379.381 425.267 376.184V195.36C425.268 192.163 426.679 189.096 429.192 186.835C431.704 184.574 435.111 183.304 438.664 183.303H517.367C520.92 183.304 524.327 184.574 526.839 186.835C529.352 189.096 530.763 192.163 530.764 195.36V285.06Z" fill="#131211"/>
<path d="M521.262 203.129H434.769V241.251H521.262V203.129Z" fill="#FFA511"/>
<path d="M555 272.228H439.608V275.815H555V272.228Z" fill="#FFA511"/>
<path d="M555 281.659H439.608V285.246H555V281.659Z" fill="#FFA511"/>
<path d="M555 291.089H439.608V294.675H555V291.089Z" fill="#FFA511"/>
<path d="M555 300.52H439.608V304.106H555V300.52Z" fill="#FFA511"/>
<path d="M555 309.951H439.608V313.537H555V309.951Z" fill="#FFA511"/>
<path d="M555 319.382H439.608V322.968H555V319.382Z" fill="#FFA511"/>
<path d="M555 328.813H439.608V332.399H555V328.813Z" fill="#FFA511"/>
<path d="M555 338.244H439.608V341.831H555V338.244Z" fill="#FFA511"/>
<path d="M542.558 354.602H462.278V358.188H542.558V354.602Z" fill="#FFA511"/>
<path d="M550.779 362.142H462.278V365.728H550.779V362.142Z" fill="#FFA511"/>
<path d="M447.294 262.555H434.265V266.279H447.294V262.555Z" fill="#FFA511"/>
<path d="M463.543 262.555H450.514V266.279H463.543V262.555Z" fill="#FFA511"/>
<path d="M480.883 262.555H467.854V266.279H480.883V262.555Z" fill="#FFA511"/>
<path d="M449.002 367.465C453.785 367.465 457.663 363.975 457.663 359.67C457.663 355.365 453.785 351.875 449.002 351.875C444.219 351.875 440.341 355.365 440.341 359.67C440.341 363.975 444.219 367.465 449.002 367.465Z" fill="#FFA511"/>
<path d="M546.908 248.175H439.608V255.831H546.908V248.175Z" fill="#FD8519"/>
<path d="M479.198 165.299L481.427 167.499L478.772 168.969L476.543 166.769L479.198 165.299Z" fill="#DE8E68"/>
<path d="M483.684 169.969H487.732V171.918H483.684V169.969Z" fill="#DE8E68"/>
<path d="M496.053 132.954C496.053 132.954 504.232 153.6 504.232 154.018C504.232 154.437 481.402 168.226 480.979 168.226C480.556 168.226 478.799 165.707 478.799 165.269C478.799 164.831 484.233 161.518 484.233 161.518L496.053 132.954Z" fill="#131211" fill-opacity="0.85"/>
<path d="M483.52 170.012L480.982 132.615C482.174 133.248 488.317 134.541 496.052 132.954C495.515 136.237 487.934 170.215 487.934 170.215H483.546L483.52 170.012Z" fill="#131211"/>
<path d="M496.487 121.823C497.511 121.409 508.377 116.096 510.155 116.096C511.933 116.096 511.787 116.871 511.787 117.105C511.787 117.34 511.568 118.888 506.598 119.842C506.16 120.238 498.9 125.676 496.732 126.324C496.708 124.613 496.487 121.823 496.487 121.823Z" fill="#DE8E68"/>
<path d="M488.041 105.523C501.531 105.523 496.793 132.187 496.052 132.954C495.312 133.721 481.549 134.244 480.703 132.297C480.143 131.008 477.263 105.523 488.041 105.523Z" fill="#FED385"/>
<path d="M507.522 118.648L513.435 115.799L510.202 114.479L504.435 117.161L507.522 118.648Z" fill="#333333"/>
<path d="M486.961 116.671C486.986 117.411 486.128 122.436 484.895 124.851C485.362 126.629 487.929 136.58 487.929 136.58L486.124 138.304C486.124 138.304 479.523 127.944 479.189 126.324C478.856 124.704 479.657 116.671 479.791 116.276C479.925 115.882 486.961 116.671 486.961 116.671Z" fill="#DE8E68"/>
<path d="M483.726 108.057C479.7 107.992 478.567 115.9 479.246 116.602C479.924 117.305 487.097 117.84 487.911 117.171C488.726 116.502 487.988 108.126 483.726 108.057Z" fill="#FED892"/>
<path d="M486.8 101.628H491.283V106.834C491.283 107.501 486.8 107.462 486.8 106.834V101.628Z" fill="#D37C59"/>
<path d="M485.88 99.3753C485.652 96.4155 487.355 93.9367 489.685 93.8386C492.014 93.7406 494.087 96.0604 494.316 99.0201C494.544 101.98 492.84 104.459 490.511 104.557C488.181 104.655 486.108 102.335 485.88 99.3753Z" fill="#DE8E68"/>
<path d="M498.913 97.588C498.913 97.0694 498.512 96.4768 498.512 95.8841C498.512 95.3656 498.813 94.773 498.813 94.0322C498.813 92.7728 497.109 92.1802 496.207 92.1802C494.503 92.1802 494.102 93.0691 491.396 93.0691C489.792 93.0691 489.09 92.7728 488.188 92.7728C485.382 92.7728 484.981 95.3656 484.981 95.6619C484.981 96.9213 482.675 96.9953 482.675 98.3288C482.675 99.5881 484.48 101.07 485.883 101.07C487.286 101.07 488.589 100.107 488.589 99.8104C488.589 99.1436 488.389 98.9955 488.389 98.551C488.389 96.9953 492.975 96.6249 493.677 96.6249C494.031 97.4157 494.241 98.2378 494.302 99.0696C494.503 99.1436 495.204 99.2918 495.906 99.2918C496.407 99.2918 498.913 98.8473 498.913 97.588Z" fill="#FD8369"/>
<path d="M486.635 102.033C486.053 102.033 485.582 101.684 485.582 101.255C485.582 100.825 486.053 100.477 486.635 100.477C487.216 100.477 487.687 100.825 487.687 101.255C487.687 101.684 487.216 102.033 486.635 102.033Z" fill="#DE8E68"/>
<path d="M483.601 171.698H487.904L494.817 173.716V174.484H483.601V171.698Z" fill="black"/>
<path d="M476.719 166.606L479.088 168.944L480.888 173.812L480.124 174.235L473.947 168.14L476.719 166.606Z" fill="black"/>
<path d="M2.43887 286.993C0.778967 286.993 0 290.057 0 292.592C0.0181814 300.242 0.993673 307.876 2.91463 315.401C3.27275 315.401 3.63611 315.384 4.00469 315.384C9.0027 315.384 13.0544 316.396 13.0544 317.646C13.0544 318.895 9.08635 319.885 4.16675 319.908C4.24256 320.156 4.31575 320.403 4.39417 320.65C9.21182 320.701 13.0597 321.693 13.0597 322.912C13.0597 324 9.98295 324.909 5.88677 325.123C14.7352 349.851 31.6532 369.37 43.0634 378.469H57.8771V369.463C57.8719 353.759 20.3711 286.993 2.43887 286.993Z" fill="#FED385"/>
<path d="M118.012 313.22C108.312 313.22 107.279 320.805 100.715 320.805C98.1816 320.805 97.4804 318.857 97.4804 317.013C97.4804 313.869 104.448 302.199 105.033 294.705C104.35 294.796 103.658 294.841 102.963 294.84C98.3731 294.84 94.6497 292.896 94.6497 290.503C94.6497 288.11 98.3731 286.165 102.963 286.165C103.17 286.165 103.375 286.165 103.577 286.179C101.38 280.659 96.241 274.897 84.9467 274.897C66.3842 274.897 61.3205 298.882 58.5079 308.619C56.7665 314.653 38.2402 336.294 38.2402 352.31C38.2402 366.428 44.1914 378.469 45.7439 378.469H64.4074C64.4074 374.132 75.9811 366.119 78.7342 363.926C97.7832 348.75 129.19 341.848 129.19 324.096C129.2 320.19 127.842 313.22 118.012 313.22Z" fill="#FFE4AD"/>
<path d="M332.412 175.902C331.47 175.902 330.706 176.665 330.706 177.608C330.706 187.954 322.288 196.372 311.941 196.372H301.706V199.784H311.941C324.169 199.784 334.118 189.836 334.118 177.608C334.118 176.665 333.354 175.902 332.412 175.902Z" fill="#F3C97A"/>
<path d="M293.177 220.823V265.538L287.52 267.424C286.626 267.722 286.143 268.688 286.441 269.582C286.738 270.475 287.705 270.959 288.598 270.661L295.422 268.386C296.118 268.154 296.588 267.502 296.588 266.768V220.823H293.177Z" fill="#4F4F4F"/>
<path d="M310.235 220.823V265.538L315.892 267.424C316.786 267.722 317.269 268.688 316.971 269.582C316.673 270.475 315.707 270.959 314.813 270.661L307.99 268.386C307.294 268.154 306.824 267.502 306.824 266.768V220.823H310.235Z" fill="#353535"/>
<path d="M311.941 214H305.118L308.529 237.882H315.353V223.022C315.353 219.562 314.063 216.405 311.941 214Z" fill="#FFBD7E"/>
<path d="M305.118 214H291.471C289.349 216.405 288.059 219.562 288.059 223.022V237.882H308.529V223.022C308.529 219.562 307.24 216.405 305.118 214Z" fill="#FFCB63"/>
<path d="M317.059 171.353C317.059 170.21 316.495 169.201 315.633 168.582C316.193 167.68 316.327 166.533 315.89 165.478C315.453 164.422 314.546 163.706 313.513 163.464C313.685 162.416 313.37 161.304 312.562 160.497C311.754 159.689 310.643 159.374 309.595 159.546C309.353 158.513 308.637 157.606 307.581 157.169C306.526 156.732 305.378 156.866 304.477 157.426C303.857 156.564 302.849 156 301.706 156C300.563 156 299.555 156.564 298.936 157.426C298.034 156.866 296.886 156.732 295.831 157.169C294.775 157.606 294.059 158.512 293.817 159.546C292.77 159.374 291.658 159.689 290.85 160.496C290.042 161.304 289.727 162.416 289.899 163.463C288.866 163.706 287.959 164.422 287.522 165.477C287.085 166.533 287.219 167.68 287.779 168.582C286.917 169.201 286.353 170.21 286.353 171.353C286.353 172.495 286.917 173.504 287.779 174.123C287.219 175.025 287.085 176.172 287.522 177.228C287.959 178.283 288.866 179 289.899 179.242C289.728 180.289 290.042 181.401 290.85 182.209C291.69 183.049 292.859 183.359 293.942 183.14H309.47C310.553 183.359 311.722 183.049 312.562 182.209C313.37 181.401 313.685 180.289 313.513 179.242C314.546 178.999 315.453 178.283 315.89 177.228C316.327 176.172 316.193 175.025 315.633 174.123C316.495 173.504 317.059 172.495 317.059 171.353Z" fill="#40211D"/>
<path d="M301.706 166.235V186.706C307.359 186.706 311.941 182.123 311.941 176.47C311.941 170.818 307.359 166.235 301.706 166.235Z" fill="#F3C97A"/>
<path d="M305.118 176.47C305.118 170.818 303.59 166.235 301.706 166.235C296.053 166.235 291.471 170.818 291.471 176.47C291.471 182.123 296.053 186.706 301.706 186.706C303.59 186.706 305.118 182.123 305.118 176.47Z" fill="#FFF6AC"/>
<path d="M307.392 193.529H300.569V217.412H311.941V198.078C311.941 195.566 309.905 193.529 307.392 193.529Z" fill="#353535"/>
<path d="M300.569 193.529H296.02C293.508 193.529 291.471 195.566 291.471 198.078V217.412H305.118V198.078C305.118 195.566 303.081 193.529 300.569 193.529Z" fill="#4F4F4F"/>
<path d="M324.451 220.823L321.039 217.412L324.451 214H334.686V220.823H324.451Z" fill="#E53939"/>
<path d="M324.451 214H293.188V220.823H324.451V214Z" fill="#FFF6AC"/>
<path d="M295.728 225.372H300.569C303.071 225.372 305.118 223.325 305.118 220.823V217.412L284.647 207.176L271 217.412C271 224.949 277.11 231.059 284.647 231.059C289.212 231.059 293.251 228.815 295.728 225.372Z" fill="#A91B1B"/>
<path d="M305.118 214C305.118 211.498 303.071 209.451 300.569 209.451H295.729C293.251 206.008 289.212 203.765 284.647 203.765C277.11 203.765 271 209.875 271 217.412H305.118V214H305.118Z" fill="#E53939"/>
<path d="M298.294 220.255C297.352 220.255 296.588 219.491 296.588 218.549V216.274C296.588 215.332 297.352 214.569 298.294 214.569C299.236 214.569 300 215.332 300 216.274V218.549C300 219.491 299.236 220.255 298.294 220.255Z" fill="#084F6D"/>
<path d="M291.471 220.255C290.529 220.255 289.765 219.491 289.765 218.549V216.274C289.765 215.332 290.529 214.569 291.471 214.569C292.413 214.569 293.176 215.332 293.176 216.274V218.549C293.176 219.491 292.413 220.255 291.471 220.255Z" fill="#084F6D"/>
<path d="M284.647 208.882C283.705 208.882 282.941 208.119 282.941 207.176V200.353C282.941 199.41 283.705 198.647 284.647 198.647C285.589 198.647 286.353 199.411 286.353 200.353V207.176C286.353 208.119 285.589 208.882 284.647 208.882Z" fill="#FFF6AC"/>
<path d="M340.941 186.706V269.043C340.941 269.985 341.705 270.749 342.647 270.749C343.589 270.749 344.353 269.985 344.353 269.043V186.706H340.941Z" fill="#696969"/>
<path d="M342.647 177.608C340.763 177.608 339.235 179.135 339.235 181.019V187.843C339.235 189.727 340.763 191.255 342.647 191.255C344.531 191.255 346.059 189.727 346.059 187.843V181.019C346.059 179.135 344.531 177.608 342.647 177.608Z" fill="#B3B3B3"/>
<path d="M356.294 270.749C355.858 270.749 355.421 270.582 355.088 270.249L342.647 257.808L330.206 270.249C329.54 270.915 328.46 270.915 327.794 270.249C327.128 269.582 327.128 268.502 327.794 267.836L341.441 254.189C342.107 253.523 343.187 253.523 343.853 254.189L357.5 267.836C358.167 268.503 358.167 269.582 357.5 270.249C357.167 270.582 356.73 270.749 356.294 270.749Z" fill="#696969"/>
<path d="M344.921 208.882H340.372C339.43 208.882 338.667 208.119 338.667 207.176C338.667 206.234 339.43 205.47 340.372 205.47H344.921C345.864 205.47 346.627 206.234 346.627 207.176C346.627 208.119 345.864 208.882 344.921 208.882Z" fill="#4F4F4F"/>
<path d="M119.14 163.618C119.388 162.968 119.516 162.267 119.516 161.532V157.258C117.379 157.258 115.028 156.403 113.207 155.548C111.395 154.694 110.113 153.839 110.113 153.839C108.514 154.907 107.548 156.702 107.548 158.634V161.532C107.548 163.191 108.215 164.678 109.301 165.764C109.78 166.242 110.344 166.644 110.968 166.935V166.943C110.925 168.559 110.557 169.799 110.318 170.448C110.369 170.491 110.421 170.534 110.463 170.585C110.78 170.893 110.968 171.32 110.968 171.79C110.968 172.543 110.72 173.244 110.292 173.816C110.198 173.953 110.087 174.09 109.968 174.21C109.344 174.825 108.489 175.21 107.548 175.21C105.924 175.21 104.565 174.081 104.215 172.56C104.163 172.312 104.129 172.055 104.129 171.79V157.258C104.129 154.659 105.18 152.309 106.882 150.607C108.583 148.906 110.934 147.855 113.532 147.855C118.73 147.855 122.935 152.061 122.935 157.258V160.951V160.96C121.893 161.267 120.927 161.831 120.14 162.618L119.14 163.618Z" fill="#FCD770"/>
<path d="M119.713 174.483C120.14 174.911 120.61 175.27 121.123 175.56L117.157 185.468H107.548C107.078 185.468 106.694 185.083 106.694 184.613V182.903V182.895C106.651 182.903 106.6 182.903 106.557 182.903H105.839H102.419H101.565L100.923 181.937C100.222 180.894 99.8549 179.672 99.8549 178.415C99.8549 177.432 100.086 176.458 100.522 175.577L101.086 174.449C101.394 173.842 101.924 173.38 102.573 173.167L104.215 172.56C104.565 174.081 105.924 175.21 107.548 175.21C108.489 175.21 109.344 174.825 109.968 174.21C110.087 174.09 110.198 173.953 110.292 173.816L110.301 173.825L111.575 176.065L112.934 178.441C113.301 179.082 113.994 179.484 114.729 179.484C115.558 179.484 116.311 178.988 116.635 178.227L117.559 176.065L118.755 173.278L118.764 173.269C119.02 173.705 119.345 174.116 119.713 174.483Z" fill="#E6E9ED"/>
<path d="M132.287 180.313C132.185 181.023 131.851 181.681 131.339 182.194L129.92 183.613C129.612 183.92 129.244 184.168 128.842 184.339C128.424 184.519 127.971 184.613 127.5 184.613H125.226H125.218C125.056 185.844 124.816 187.066 124.483 188.272C124.115 189.597 123.79 191.298 123.79 193.161C123.79 195.726 125.5 199.145 125.5 199.145H105.839C105.839 199.145 107.548 195.726 107.548 193.161C107.548 192.264 107.471 191.4 107.352 190.597V190.588C107.42 190.597 107.48 190.597 107.548 190.597H118.661C120.08 190.597 121.226 189.451 121.226 188.032C121.226 187.34 120.952 186.716 120.499 186.254L120.508 186.246L120.841 185.468L124.466 176.424C125.141 176.415 125.825 176.304 126.492 176.082C126.765 175.988 127.047 175.945 127.329 175.945C128.022 175.945 128.697 176.218 129.21 176.723L130.467 177.979C130.997 178.509 131.638 178.92 132.339 179.176V179.775C132.339 179.954 132.322 180.134 132.287 180.313Z" fill="#E6E9ED"/>
<path d="M117.559 176.065L116.635 178.227C116.311 178.988 115.558 179.484 114.729 179.484C113.994 179.484 113.301 179.082 112.934 178.441L111.575 176.065H117.559Z" fill="#AAB2BD"/>
<path d="M130.116 173.936L138.545 177.159L137.716 177.979C136.75 178.954 135.442 179.484 134.091 179.484C133.852 179.484 133.612 179.467 133.365 179.433C133.014 179.381 132.664 179.296 132.339 179.176C131.638 178.92 130.997 178.509 130.467 177.979L129.21 176.723C128.697 176.218 128.022 175.945 127.329 175.945C127.047 175.945 126.765 175.988 126.492 176.082C125.825 176.304 125.141 176.415 124.466 176.424L126.073 172.389L130.116 173.936Z" fill="#CF9E76"/>
<path d="M117.806 169.226L122.876 171.166L121.123 175.56C120.61 175.27 120.14 174.911 119.713 174.483C119.345 174.116 119.02 173.705 118.764 173.269C118.114 172.235 117.772 171.03 117.772 169.799V169.217C117.789 169.226 117.798 169.226 117.806 169.217V169.226Z" fill="#CF9E76"/>
<path d="M119.14 163.618L120.14 162.618C120.927 161.832 121.893 161.267 122.936 160.96C123.542 160.772 124.175 160.677 124.825 160.677C125.551 160.677 126.269 160.797 126.936 161.019L124.97 165.943L122.064 164.832C122.021 164.422 121.824 164.046 121.551 163.772C121.226 163.447 120.764 163.242 120.268 163.242C119.815 163.242 119.371 163.413 119.037 163.729L119.14 163.618Z" fill="#CF9E76"/>
<path d="M140.032 170.935V171.696L132.202 168.704L128.167 167.166L129.843 162.977C130.193 163.387 130.501 163.84 130.749 164.336C131.202 165.242 132.116 165.806 133.125 165.806H134.903C136.015 165.806 137.092 166.165 137.981 166.832C138.63 167.311 139.143 167.935 139.494 168.645C139.844 169.345 140.032 170.132 140.032 170.935Z" fill="#CF9E76"/>
<path d="M121.551 163.772C121.824 164.045 122.021 164.422 122.064 164.832C122.072 164.909 122.081 164.977 122.081 165.054C122.081 165.926 121.781 166.781 121.243 167.465C121.149 167.585 121.046 167.696 120.944 167.798L120.653 168.089C119.926 168.815 118.935 169.226 117.909 169.226C117.875 169.226 117.841 169.226 117.806 169.217C117.798 169.226 117.789 169.226 117.772 169.217C117.328 169.192 116.926 168.995 116.627 168.696C116.302 168.371 116.097 167.909 116.097 167.414C116.097 167.243 116.122 167.072 116.165 166.909C116.251 166.619 116.405 166.354 116.627 166.131L118.986 163.772L119.029 163.729H119.037C119.371 163.413 119.815 163.242 120.268 163.242C120.764 163.242 121.226 163.447 121.551 163.772Z" fill="#D3A06C"/>
<path d="M124.97 165.943L123.944 168.499L121.243 167.465C121.781 166.781 122.081 165.926 122.081 165.054C122.081 164.977 122.072 164.909 122.064 164.832L124.97 165.943Z" fill="#ECC19C"/>
<path d="M120.944 167.798C121.046 167.696 121.149 167.585 121.243 167.465L123.944 168.499L122.884 171.166H122.876L117.806 169.226V169.217C117.841 169.226 117.875 169.226 117.909 169.226C118.935 169.226 119.926 168.816 120.653 168.089L120.944 167.798Z" fill="#ECC19C"/>
<path d="M131.176 171.269L130.116 173.936L126.073 172.389L127.141 169.722L131.176 171.269Z" fill="#ECC19C"/>
<path d="M132.202 168.704L131.176 171.269L127.141 169.722L128.167 167.166L132.202 168.704Z" fill="#ECC19C"/>
<path d="M150.145 174.5C150.761 175.124 151.145 175.979 151.145 176.919C151.145 177.86 150.761 178.715 150.145 179.339C149.521 179.954 148.666 180.339 147.726 180.339C147.162 180.339 146.597 180.236 146.076 180.031L144.366 179.381L140.058 177.732L138.545 177.159L130.116 173.936L131.176 171.269L132.202 168.704L140.032 171.696L146.401 174.133C146.435 174.09 146.478 174.047 146.521 174.004C146.828 173.688 147.256 173.5 147.726 173.5C148.666 173.5 149.521 173.885 150.145 174.5Z" fill="#ECC19C"/>
<path d="M120.841 185.468L120.508 186.246L120.499 186.254C120.499 186.246 120.482 186.229 120.474 186.22C120.012 185.758 119.371 185.468 118.661 185.468H117.157L121.123 175.56L122.876 171.166H122.884L123.944 168.499L124.97 165.943L126.936 161.019L129.039 155.771C129.304 155.112 129.92 154.694 130.629 154.694C130.843 154.694 131.056 154.736 131.262 154.813C131.689 154.984 132.022 155.309 132.202 155.728C132.381 156.147 132.381 156.617 132.219 157.036L129.843 162.977L128.167 167.166L127.141 169.722L126.073 172.389L124.466 176.424L120.841 185.468Z" fill="#D3A06C"/>
<path d="M132.296 180.313L136.613 182.903L140.058 177.732L144.366 179.381L140.485 186.485C140.084 187.229 139.494 187.827 138.793 188.237C138.092 188.656 137.28 188.887 136.442 188.887C135.442 188.887 134.476 188.562 133.672 187.964L128.842 184.339C129.244 184.168 129.612 183.921 129.92 183.613L131.339 182.194C131.852 181.681 132.185 181.023 132.287 180.313H132.296Z" fill="#F0D0B4"/>
<path d="M106.694 182.903V184.613C106.694 185.083 107.078 185.468 107.548 185.468H117.157H118.661C119.371 185.468 120.012 185.758 120.474 186.22C120.482 186.229 120.499 186.246 120.499 186.254C120.952 186.716 121.226 187.34 121.226 188.032C121.226 189.451 120.08 190.597 118.661 190.597H107.548C107.48 190.597 107.42 190.597 107.352 190.588C104.138 190.486 101.565 187.853 101.565 184.613V182.903H102.419H105.839H106.557C106.6 182.903 106.651 182.903 106.694 182.895V182.903Z" fill="#F0D0B4"/>
<path d="M118.764 173.269L118.755 173.278L117.559 176.065H111.575L110.301 173.825L110.292 173.816C110.72 173.244 110.968 172.543 110.968 171.79C110.968 171.32 110.78 170.893 110.463 170.585C110.421 170.534 110.369 170.491 110.318 170.448C110.557 169.799 110.925 168.559 110.968 166.943V166.935C111.746 167.311 112.609 167.516 113.532 167.516C114.481 167.516 115.37 167.294 116.165 166.909C116.122 167.072 116.097 167.243 116.097 167.414C116.097 167.909 116.302 168.371 116.627 168.696C116.926 168.995 117.328 169.192 117.772 169.217V169.799C117.772 171.03 118.114 172.235 118.764 173.269Z" fill="#F0D0B4"/>
<path d="M119.516 157.258V161.532C119.516 162.267 119.388 162.968 119.14 163.618L119.037 163.729H119.029C119.012 163.746 119.003 163.755 118.986 163.772L116.627 166.131C116.405 166.354 116.251 166.619 116.165 166.909C115.37 167.294 114.481 167.516 113.532 167.516C112.609 167.516 111.746 167.311 110.968 166.935C110.344 166.644 109.78 166.242 109.301 165.764C108.215 164.678 107.548 163.191 107.548 161.532V158.634C107.548 156.702 108.514 154.907 110.113 153.839C110.113 153.839 111.395 154.694 113.207 155.548C115.028 156.403 117.379 157.258 119.516 157.258Z" fill="#F0D0B4"/>
<path d="M137.468 158.113C138.412 158.113 139.177 157.347 139.177 156.403C139.177 155.459 138.412 154.694 137.468 154.694C136.524 154.694 135.758 155.459 135.758 156.403C135.758 157.347 136.524 158.113 137.468 158.113Z" fill="#FF826E"/>
<path d="M142.597 165.807C143.541 165.807 144.307 165.041 144.307 164.097C144.307 163.153 143.541 162.387 142.597 162.387C141.653 162.387 140.887 163.153 140.887 164.097C140.887 165.041 141.653 165.807 142.597 165.807Z" fill="#FF826E"/>
<path d="M149.436 167.516C150.38 167.516 151.145 166.751 151.145 165.806C151.145 164.862 150.38 164.097 149.436 164.097C148.491 164.097 147.726 164.862 147.726 165.806C147.726 166.751 148.491 167.516 149.436 167.516Z" fill="#FF826E"/>
<path d="M110.968 160.677C111.44 160.677 111.823 160.295 111.823 159.823C111.823 159.35 111.44 158.968 110.968 158.968C110.496 158.968 110.113 159.35 110.113 159.823C110.113 160.295 110.496 160.677 110.968 160.677Z" fill="black"/>
<path d="M116.097 160.677C116.569 160.677 116.952 160.295 116.952 159.823C116.952 159.35 116.569 158.968 116.097 158.968C115.625 158.968 115.242 159.35 115.242 159.823C115.242 160.295 115.625 160.677 116.097 160.677Z" fill="black"/>
<path d="M111.733 162.005L110.204 162.77L110.293 162.95C110.911 164.185 112.152 164.952 113.532 164.952C114.913 164.952 116.154 164.185 116.771 162.95L116.861 162.769L115.332 162.004L115.242 162.185C114.916 162.837 114.261 163.242 113.532 163.242C112.803 163.242 112.148 162.837 111.823 162.185L111.733 162.005Z" fill="black"/>
<path d="M137.468 158.968C138.882 158.968 140.032 157.817 140.032 156.403V148.846C140.614 149.039 141.109 149.411 141.656 149.821C142.564 150.502 143.594 151.274 145.161 151.274V149.565C144.164 149.565 143.477 149.049 142.682 148.453C141.774 147.772 140.744 147 139.177 147H138.323V153.996C138.054 153.9 137.769 153.839 137.468 153.839C136.054 153.839 134.903 154.989 134.903 156.403C134.903 157.817 136.054 158.968 137.468 158.968ZM137.468 155.548C137.939 155.548 138.323 155.931 138.323 156.403C138.323 156.875 137.939 157.258 137.468 157.258C136.997 157.258 136.613 156.875 136.613 156.403C136.613 155.931 136.997 155.548 137.468 155.548Z" fill="black"/>
<path d="M151.145 156.403C149.04 156.403 146.932 155.906 145.049 154.964L143.452 154.166V161.69C143.183 161.594 142.898 161.532 142.597 161.532C141.183 161.532 140.032 162.683 140.032 164.097C140.032 165.511 141.183 166.661 142.597 166.661C144.011 166.661 145.161 165.511 145.161 164.097V156.897C146.785 157.584 148.529 157.989 150.29 158.089V163.4C150.022 163.304 149.736 163.242 149.436 163.242C148.022 163.242 146.871 164.393 146.871 165.806C146.871 167.22 148.022 168.371 149.436 168.371C150.849 168.371 152 167.22 152 165.806V156.403H151.145ZM142.597 164.952C142.126 164.952 141.742 164.569 141.742 164.097C141.742 163.625 142.126 163.242 142.597 163.242C143.068 163.242 143.452 163.625 143.452 164.097C143.452 164.569 143.068 164.952 142.597 164.952ZM149.436 166.661C148.964 166.661 148.581 166.278 148.581 165.806C148.581 165.335 148.964 164.952 149.436 164.952C149.907 164.952 150.29 165.335 150.29 165.806C150.29 166.278 149.907 166.661 149.436 166.661Z" fill="black"/>
<path d="M147.726 172.645C147.159 172.645 146.64 172.836 146.215 173.148L140.887 171.111V170.935C140.887 169.063 139.992 167.273 138.494 166.148C137.465 165.376 136.19 164.952 134.903 164.952H133.123C132.438 164.952 131.822 164.571 131.515 163.957C131.318 163.564 131.075 163.197 130.814 162.844L133.009 157.356C133.263 156.72 133.254 156.023 132.985 155.394C132.715 154.763 132.216 154.276 131.584 154.024C131.28 153.901 130.957 153.839 130.626 153.839C129.572 153.839 128.638 154.472 128.247 155.453L126.427 160.002C125.901 159.887 125.366 159.823 124.825 159.823C124.475 159.823 124.131 159.855 123.79 159.902V157.258C123.79 151.602 119.189 147 113.532 147C107.876 147 103.274 151.602 103.274 157.258V171.79C103.274 171.858 103.291 171.92 103.294 171.987L102.302 172.354C101.435 172.642 100.734 173.251 100.325 174.068L99.76 175.198C99.2633 176.192 99 177.305 99 178.417C99 179.844 99.418 181.224 100.21 182.412L100.71 183.162V184.613C100.71 188.054 103.268 190.903 106.581 191.375C106.648 191.979 106.694 192.579 106.694 193.161C106.694 195.491 105.091 198.731 105.074 198.763L104.456 200H126.883L126.264 198.763C126.248 198.731 124.645 195.497 124.645 193.161C124.645 191.653 124.867 190.085 125.305 188.501C125.574 187.525 125.777 186.506 125.943 185.468H127.503C127.907 185.468 128.297 185.393 128.676 185.285L133.16 188.649C134.101 189.354 135.265 189.742 136.439 189.742C138.441 189.742 140.279 188.65 141.238 186.894L144.759 180.446L145.767 180.832C146.395 181.071 147.054 181.194 147.726 181.194C150.083 181.194 152 179.276 152 176.919C152 174.563 150.083 172.645 147.726 172.645ZM133.123 166.661H134.903C135.822 166.661 136.733 166.965 137.468 167.516C138.407 168.221 139.013 169.291 139.148 170.447L129.282 166.674L130.031 164.8C130.643 165.948 131.817 166.661 133.123 166.661ZM138.747 178.161L136.354 181.751L133.988 180.331C134.019 180.332 134.051 180.338 134.083 180.338C135.658 180.338 137.198 179.712 138.323 178.585L138.747 178.161ZM133.487 178.585C132.577 178.456 131.719 178.026 131.068 177.377L129.81 176.118C128.866 175.174 127.489 174.848 126.22 175.271C126.083 175.317 125.941 175.34 125.801 175.376L126.557 173.486L136.998 177.478C136.059 178.352 134.76 178.767 133.487 178.585ZM127.192 171.9L127.623 170.823L130.064 171.756L129.633 172.832L127.192 171.9ZM130.698 170.17L128.257 169.236L128.647 168.261L131.088 169.194L130.698 170.17ZM129.834 156.087C130.006 155.657 130.51 155.436 130.947 155.611C131.158 155.695 131.323 155.857 131.413 156.066C131.504 156.279 131.507 156.507 131.421 156.721L120.128 184.957C119.682 184.743 119.189 184.613 118.661 184.613H118.424L129.834 156.087ZM120.316 173.877C119.387 172.948 118.818 171.756 118.669 170.47L121.766 171.654L120.732 174.24C120.589 174.123 120.446 174.008 120.316 173.877ZM116.999 175.21H112.074L111.283 173.826C111.617 173.218 111.823 172.531 111.823 171.79C111.823 171.206 111.618 170.672 111.287 170.241C111.451 169.716 111.629 168.996 111.734 168.123C112.308 168.279 112.909 168.371 113.532 168.371C114.155 168.371 114.762 168.279 115.349 168.117C115.571 168.922 116.154 169.577 116.921 169.885C116.935 171.108 117.238 172.284 117.803 173.334L116.999 175.21ZM116.266 176.919L115.849 177.894C115.657 178.34 115.219 178.629 114.732 178.629C114.298 178.629 113.894 178.395 113.678 178.017L113.052 176.919H116.266ZM122.829 166.036L123.856 166.429L123.466 167.404L122.491 167.031C122.637 166.712 122.757 166.382 122.829 166.036ZM122.4 170.067L120.462 169.327C120.745 169.145 121.014 168.938 121.257 168.694L121.478 168.474L122.831 168.992L122.4 170.067ZM120.339 167.193L120.047 167.486C119.477 168.057 118.718 168.371 117.91 168.371C117.382 168.371 116.952 167.941 116.952 167.413C116.952 167.161 117.054 166.913 117.232 166.735L119.59 164.377C119.771 164.196 120.011 164.097 120.268 164.097C120.796 164.097 121.226 164.527 121.226 165.055C121.226 165.862 120.911 166.621 120.339 167.193ZM118.661 161.532C118.661 162.094 118.56 162.641 118.383 163.166C118.383 163.167 118.382 163.168 118.381 163.168L116.023 165.526C115.812 165.737 115.649 165.987 115.521 166.253C114.892 166.519 114.226 166.661 113.532 166.661C110.704 166.661 108.403 164.361 108.403 161.532V158.63C108.403 157.168 109.049 155.801 110.152 154.875C111.488 155.691 115.174 157.763 118.661 158.073V161.532ZM125.781 161.614L124.49 164.841L122.777 164.187C122.543 163.512 122.051 162.962 121.412 162.656C122.397 161.931 123.579 161.532 124.825 161.532C125.147 161.532 125.467 161.561 125.781 161.614ZM104.984 157.258C104.984 152.544 108.819 148.71 113.532 148.71C118.246 148.71 122.081 152.544 122.081 157.258V160.346C121.473 160.585 120.901 160.908 120.371 161.303V156.403H119.516C115.556 156.403 110.636 153.16 110.586 153.127L110.113 152.812L109.639 153.127C107.795 154.356 106.694 156.414 106.694 158.63V161.532C106.694 164.045 108.06 166.24 110.085 167.428C110.032 168.156 109.913 168.785 109.785 169.281C109.615 169.245 109.438 169.226 109.258 169.226C107.844 169.226 106.694 170.376 106.694 171.79V172.645H108.403V171.79C108.403 171.318 108.787 170.935 109.258 170.935C109.729 170.935 110.113 171.318 110.113 171.79C110.113 173.204 108.962 174.355 107.548 174.355C106.134 174.355 104.984 173.204 104.984 171.79V157.258ZM101.289 175.962L101.854 174.833C102.059 174.423 102.409 174.12 102.868 173.967L103.72 173.652C104.415 175.075 105.862 176.065 107.548 176.065C108.508 176.065 109.385 175.735 110.099 175.199L112.194 178.865C112.713 179.774 113.685 180.339 114.732 180.339C115.904 180.339 116.958 179.644 117.419 178.567L118.973 174.94C119.019 174.987 119.059 175.039 119.106 175.086C119.402 175.382 119.731 175.644 120.073 175.887L116.582 184.613H107.548V183.606C108.59 183.29 109.441 182.492 109.798 181.419C110.007 180.794 110.113 180.143 110.113 179.484V178.629H108.403V179.484C108.403 179.959 108.327 180.428 108.177 180.879C107.959 181.533 107.371 181.97 106.694 182.026V180.339H104.984V182.048H103.274V178.629H101.565V181.344C101.01 180.465 100.71 179.458 100.71 178.417C100.71 177.569 100.91 176.72 101.289 175.962ZM102.419 184.613V183.758H105.839V184.613C105.839 185.556 106.606 186.323 107.548 186.323H118.661C119.604 186.323 120.371 187.089 120.371 188.032C120.371 188.975 119.604 189.742 118.661 189.742H107.548C104.72 189.742 102.419 187.442 102.419 184.613ZM126.168 183.758C126.282 182.643 126.355 181.507 126.355 180.339H124.645C124.645 183.081 124.313 185.674 123.658 188.045C123.178 189.778 122.935 191.499 122.935 193.161C122.935 194.925 123.653 196.999 124.183 198.29H107.156C107.686 196.999 108.403 194.925 108.403 193.161C108.403 192.602 108.365 192.029 108.309 191.452H118.661C120.547 191.452 122.081 189.918 122.081 188.032C122.081 187.324 121.864 186.665 121.493 186.118L121.638 185.785L125.062 177.225C125.639 177.173 126.21 177.077 126.762 176.894C127.412 176.675 128.118 176.843 128.602 177.328L129.861 178.586C130.332 179.058 130.885 179.443 131.484 179.733V179.778C131.484 180.464 131.217 181.108 130.733 181.592L129.317 183.008C128.839 183.485 128.178 183.758 127.503 183.758H126.168ZM139.737 186.075C139.079 187.282 137.816 188.032 136.44 188.032C135.633 188.032 134.833 187.765 134.187 187.281L130.322 184.382C130.388 184.324 130.462 184.278 130.525 184.215L131.941 182.8C132.294 182.447 132.564 182.036 132.772 181.596L136.871 184.056L140.39 178.776L143.146 179.83L139.737 186.075ZM147.726 179.484C147.263 179.484 146.81 179.4 146.378 179.235L131.23 173.444L132.686 169.805L145.241 174.604C145.194 174.8 145.161 175 145.161 175.21C145.161 176.624 146.312 177.774 147.726 177.774H148.581V176.065H147.726C147.255 176.065 146.871 175.682 146.871 175.21C146.871 174.738 147.255 174.355 147.726 174.355C149.14 174.355 150.29 175.505 150.29 176.919C150.29 178.333 149.14 179.484 147.726 179.484Z" fill="black"/>
<path d="M130.619 113.051H127.141V114.481C127.141 114.713 127.334 114.945 127.605 114.945H132.28V114.713C132.28 113.824 131.546 113.051 130.619 113.051Z" fill="#324A5E"/>
<path d="M120.882 113.051H124.359V114.481C124.359 114.713 124.166 114.945 123.896 114.945H119.22V114.713C119.22 113.824 119.954 113.051 120.882 113.051Z" fill="#2B3B4E"/>
<path d="M133.13 69.1181C133.13 69.1181 134.405 69.0022 134.753 73.3298C135.101 77.6574 134.985 87.2787 134.599 89.5585L131.817 89.1335C131.817 89.1335 132.164 78.353 131.933 76.8074C131.894 76.7687 131.044 72.1705 133.13 69.1181Z" fill="#2B3B4E"/>
<path d="M120.882 113.051H124.32C124.089 109.226 126.098 93.1519 126.098 93.1519C126.832 93.8474 127.102 111.274 127.141 113.051H130.541C130.503 111.853 130.735 103.739 131.778 95.6634C132.898 86.8921 131.082 82.5645 131.082 82.5645H121.422C118.911 85.192 120.418 95.5861 120.418 95.5861C120.534 97.8273 120.997 111.506 120.882 113.051Z" fill="#324A5E"/>
<path d="M130.541 113.051C130.503 111.854 130.735 103.739 131.778 95.6634C132.126 92.9587 132.203 90.6403 132.126 88.7856V88.747C131.971 84.6511 131.082 82.6032 131.082 82.6032H126.175V93.2677C126.871 94.9292 127.141 111.351 127.18 113.09H130.541V113.051Z" fill="#2B3B4E"/>
<path d="M126.021 69.8909C127.237 69.8909 128.223 68.6107 128.223 67.0316C128.223 65.4524 127.237 64.1723 126.021 64.1723C124.804 64.1723 123.818 65.4524 123.818 67.0316C123.818 68.6107 124.804 69.8909 126.021 69.8909Z" fill="#F9B54C"/>
<path d="M125.982 68.6544C125.982 68.6544 126.6 68.693 126.523 69.7749L126.368 76.0732L125.325 75.8027L123.586 70.2386L123.432 68.4999L124.63 68.0362L125.982 68.6544Z" fill="#CED5E0"/>
<path d="M125.905 68.6544C125.905 68.6544 125.286 68.693 125.364 69.7749L125.518 76.0732L126.562 75.8027L128.3 70.2386L128.455 68.4999L127.257 68.0362L125.905 68.6544Z" fill="#E6E9EE"/>
<path d="M123.625 68.4998C123.625 67.611 123.664 67.1087 123.702 66.9542C123.47 67.9588 118.911 69.1566 118.911 69.1566C120.379 72.0545 120.109 76.8072 120.109 76.8072C120.766 77.7346 120.766 81.869 120.766 81.869C120.611 82.5259 120.456 83.5692 120.341 84.7283L122.234 85.4238V85.4624L125.016 86.4671L126.562 84.1874V76.4208C125.596 75.1072 124.05 70.0454 123.625 68.4998Z" fill="#2B3B4E"/>
<path d="M126.098 77.1551C126.247 77.1551 126.369 77.034 126.369 76.8846C126.369 76.7352 126.247 76.6141 126.098 76.6141C125.949 76.6141 125.827 76.7352 125.827 76.8846C125.827 77.034 125.949 77.1551 126.098 77.1551Z" fill="#E6E9EE"/>
<path d="M126.098 78.9326C126.247 78.9326 126.369 78.8115 126.369 78.6621C126.369 78.5127 126.247 78.3915 126.098 78.3915C125.949 78.3915 125.827 78.5127 125.827 78.6621C125.827 78.8115 125.949 78.9326 126.098 78.9326Z" fill="#E6E9EE"/>
<path d="M126.098 80.71C126.247 80.71 126.369 80.5889 126.369 80.4395C126.369 80.2901 126.247 80.1689 126.098 80.1689C125.949 80.1689 125.827 80.2901 125.827 80.4395C125.827 80.5889 125.949 80.71 126.098 80.71Z" fill="#E6E9EE"/>
<path d="M126.098 82.3328C126.247 82.3328 126.368 82.2117 126.368 82.0624C126.368 81.913 126.247 81.7919 126.098 81.7919C125.949 81.7919 125.828 81.913 125.828 82.0624C125.828 82.2117 125.949 82.3328 126.098 82.3328Z" fill="#E6E9EE"/>
<path d="M133.208 69.1181C133.208 69.1181 128.648 67.9589 128.416 66.9156C128.416 67.0702 128.494 67.6111 128.494 68.4999C128.03 70.0841 126.523 75.1072 125.518 76.421V84.1102L127.064 86.3899L129.846 85.3853V85.3467L131.739 84.6512C131.585 83.492 131.43 82.4487 131.276 81.7919C131.276 81.7919 131.276 77.6574 131.932 76.7301C132.01 76.7687 131.739 72.016 133.208 69.1181Z" fill="#324A5E"/>
<path d="M125.982 77.1551C126.131 77.1551 126.252 77.034 126.252 76.8846C126.252 76.7352 126.131 76.6141 125.982 76.6141C125.833 76.6141 125.711 76.7352 125.711 76.8846C125.711 77.034 125.833 77.1551 125.982 77.1551Z" fill="#E6E9EE"/>
<path d="M125.982 78.9326C126.131 78.9326 126.253 78.8115 126.253 78.6621C126.253 78.5127 126.131 78.3915 125.982 78.3915C125.833 78.3915 125.711 78.5127 125.711 78.6621C125.711 78.8115 125.833 78.9326 125.982 78.9326Z" fill="#E6E9EE"/>
<path d="M125.982 80.71C126.131 80.71 126.253 80.5889 126.253 80.4395C126.253 80.2901 126.131 80.1689 125.982 80.1689C125.833 80.1689 125.711 80.2901 125.711 80.4395C125.711 80.5889 125.833 80.71 125.982 80.71Z" fill="#E6E9EE"/>
<path d="M125.982 82.3328C126.131 82.3328 126.252 82.2117 126.252 82.0624C126.252 81.913 126.131 81.7919 125.982 81.7919C125.833 81.7919 125.712 81.913 125.712 82.0624C125.712 82.2117 125.833 82.3328 125.982 82.3328Z" fill="#E6E9EE"/>
<path d="M125.982 59.6514H122.968L123.47 64.7519C123.509 65.0997 123.663 65.4474 123.857 65.7179L124.282 66.2202C124.552 66.568 124.977 66.7998 125.441 66.8771L125.75 66.9157C125.905 66.9543 126.098 66.9543 126.252 66.9157L126.562 66.8771C127.025 66.7998 127.412 66.5679 127.721 66.2202L128.146 65.7179C128.378 65.4474 128.532 65.0997 128.532 64.7519L129.035 59.6514C129.035 59.6514 125.982 59.6514 125.982 59.6514Z" fill="#FFD05B"/>
<path d="M129.344 62.6266C129.189 63.013 128.841 63.2448 128.61 63.1289C128.339 63.013 128.262 62.6266 128.416 62.2401C128.571 61.8537 128.919 61.6219 129.15 61.7378C129.421 61.8538 129.498 62.2403 129.344 62.6266Z" fill="#FFD05B"/>
<path d="M122.62 62.6266C122.775 63.013 123.123 63.2448 123.354 63.1289C123.625 63.013 123.702 62.6266 123.548 62.2401C123.393 61.8537 123.045 61.6219 122.813 61.7378C122.582 61.8538 122.466 62.2403 122.62 62.6266Z" fill="#FFD05B"/>
<path d="M123.509 58.4922C123.509 58.4922 125.982 54.8214 129.382 58.9945L129.035 58.8786C129.035 58.8786 129.653 59.5741 129.112 61.9312C129.112 61.9312 128.725 61.9698 128.609 62.82C128.609 62.82 128.532 60.9266 128.03 60.5402C128.03 60.5402 124.823 60.7334 124.011 59.9993C124.011 59.9993 123.2 61.3517 123.548 63.245C123.548 63.245 122.929 62.0472 122.582 61.3904C122.35 60.9267 122.234 60.463 122.234 59.922C122.273 59.2263 122.504 58.4922 123.509 58.4922Z" fill="#324A5E"/>
<path d="M128.184 66.6838C128.184 66.6838 129.46 67.7657 127.528 69.8909C127.528 69.8909 126.368 68.6158 125.905 68.6544C125.905 68.6544 128.416 67.1475 128.184 66.6838Z" fill="white"/>
<path d="M123.857 66.6838C123.857 66.6838 122.582 67.7657 124.514 69.8909C124.514 69.8909 125.673 68.6158 126.137 68.6544C126.137 68.6544 123.586 67.1475 123.857 66.6838Z" fill="white"/>
<path d="M126.368 68.3453C126.562 68.1907 127.219 67.6884 127.953 67.6111C128.069 67.6111 128.146 67.6884 128.146 67.7657C128.184 68.1521 128.262 69.0407 128.184 69.4658C128.184 69.5431 128.069 69.6203 127.991 69.6203C127.682 69.5817 126.987 69.4272 126.368 69.0794C126.33 69.0407 126.291 68.9635 126.291 68.9248L126.33 68.4611C126.291 68.4225 126.33 68.3839 126.368 68.3453Z" fill="#FF7058"/>
<path d="M125.673 68.3453C125.48 68.1907 124.823 67.6884 124.089 67.6111C123.973 67.6111 123.896 67.6884 123.896 67.7657C123.857 68.1521 123.78 69.0407 123.857 69.4658C123.857 69.5431 123.973 69.6203 124.05 69.6203C124.359 69.5817 125.055 69.4272 125.673 69.0794C125.712 69.0407 125.75 68.9635 125.75 68.9248L125.712 68.4611C125.712 68.4225 125.673 68.3839 125.673 68.3453Z" fill="#FF7058"/>
<path d="M126.175 69.1181H125.866C125.75 69.1181 125.673 69.0409 125.673 68.925V68.5772C125.673 68.4613 125.75 68.384 125.866 68.384H126.175C126.291 68.384 126.368 68.4613 126.368 68.5772V68.925C126.368 69.0408 126.291 69.1181 126.175 69.1181Z" fill="#F1543F"/>
<path d="M123.741 85.3853C123.625 85.4239 123.47 85.4626 123.316 85.5012C122.041 85.9649 120.65 86.0035 119.336 85.6171C118.409 85.3466 117.404 85.2693 116.438 85.5012C113.27 86.2739 111.376 89.6743 112.188 93.1132C112.999 96.552 116.245 98.7546 119.413 97.9817C120.418 97.75 121.268 97.2476 121.964 96.5907C122.93 95.6633 124.205 95.0837 125.557 94.9292C125.712 94.9292 125.866 94.8906 125.982 94.8519C127.953 94.3882 128.687 91.9926 128.069 89.3651C127.412 86.7764 125.712 84.9216 123.741 85.3853Z" fill="#FFD05B"/>
<path d="M122.157 92.2632L140.085 87.5492L139.622 85.6172L121.5 89.3653L122.157 92.2632Z" fill="#F9B54C"/>
<path d="M121.307 92.9588C122.416 92.9588 123.316 92.0592 123.316 90.9495C123.316 89.8398 122.416 88.9402 121.307 88.9402C120.197 88.9402 119.297 89.8398 119.297 90.9495C119.297 92.0592 120.197 92.9588 121.307 92.9588Z" fill="#324A5E"/>
<path d="M115.767 94.388L116.595 94.1931L115.638 90.1315L114.81 90.3265L115.767 94.388Z" fill="#F9B54C"/>
<path d="M143.293 87.2401L138.617 88.322C138.424 88.3606 138.231 88.2447 138.192 88.0515L137.69 85.9263C137.651 85.7331 137.767 85.5399 137.96 85.5012L142.636 84.4193C142.829 84.3807 143.022 84.4966 143.061 84.6899L143.563 86.815C143.602 87.0082 143.486 87.2015 143.293 87.2401Z" fill="#E6E9EE"/>
<path d="M142.017 85.8491C142.21 85.8491 142.365 85.6934 142.365 85.5013C142.365 85.3092 142.21 85.1535 142.017 85.1535C141.825 85.1535 141.67 85.3092 141.67 85.5013C141.67 85.6934 141.825 85.8491 142.017 85.8491Z" fill="#ACB3BA"/>
<path d="M140.511 86.1968C140.703 86.1968 140.858 86.0411 140.858 85.849C140.858 85.6569 140.703 85.5012 140.511 85.5012C140.318 85.5012 140.163 85.6569 140.163 85.849C140.163 86.0411 140.318 86.1968 140.511 86.1968Z" fill="#ACB3BA"/>
<path d="M138.965 86.5446C139.157 86.5446 139.313 86.3889 139.313 86.1968C139.313 86.0047 139.157 85.849 138.965 85.849C138.773 85.849 138.617 86.0047 138.617 86.1968C138.617 86.3889 138.773 86.5446 138.965 86.5446Z" fill="#ACB3BA"/>
<path d="M142.249 86.931C142.441 86.931 142.597 86.7753 142.597 86.5832C142.597 86.3911 142.441 86.2354 142.249 86.2354C142.057 86.2354 141.901 86.3911 141.901 86.5832C141.901 86.7753 142.057 86.931 142.249 86.931Z" fill="#ACB3BA"/>
<path d="M140.742 87.3174C140.934 87.3174 141.09 87.1616 141.09 86.9696C141.09 86.7775 140.934 86.6218 140.742 86.6218C140.55 86.6218 140.394 86.7775 140.394 86.9696C140.394 87.1616 140.55 87.3174 140.742 87.3174Z" fill="#ACB3BA"/>
<path d="M139.235 87.6651C139.427 87.6651 139.583 87.5094 139.583 87.3173C139.583 87.1253 139.427 86.9695 139.235 86.9695C139.043 86.9695 138.888 87.1253 138.888 87.3173C138.888 87.5094 139.043 87.6651 139.235 87.6651Z" fill="#ACB3BA"/>
<path d="M117.945 90.2926V91.3359L118.331 92.4951L118.563 92.6496C118.563 92.6496 118.795 93.2678 120.186 93.6156C120.186 93.6156 120.998 93.9248 120.843 93.4611C120.843 93.4611 120.843 92.9201 120.302 92.8042C120.302 92.8042 120.147 92.4564 119.838 92.4564C119.838 92.4564 120.031 92.1473 119.645 91.6837C119.645 91.6837 119.684 91.3745 119.568 91.2586C119.568 91.2586 119.954 91.1041 119.954 91.0268C119.954 91.0268 120.07 92.4179 120.804 92.3019C120.804 92.3019 121.075 92.1474 120.804 91.6451C120.804 91.6451 120.611 89.7517 120.032 89.4812C119.993 89.4811 118.795 89.3266 117.945 90.2926Z" fill="#FF7058"/>
<path d="M117.674 89.288L117.906 90.4085C117.906 90.4085 119.259 89.2493 120.109 89.5584L119.877 88.7856L117.674 89.288Z" fill="white"/>
<path d="M118.872 69.1181C118.872 69.1181 117.597 69.0022 117.249 73.3298C116.902 77.6574 117.018 87.2787 117.404 89.5585L120.186 89.1335C120.186 89.1335 119.838 78.353 120.07 76.8074C120.07 76.7687 120.959 72.1705 118.872 69.1181Z" fill="#324A5E"/>
<path d="M134.405 89.7903C134.715 89.7131 134.908 89.4039 134.869 89.0949L134.753 88.5153C134.676 88.2061 134.483 88.013 134.29 88.0516C134.096 88.0902 134.019 88.3608 134.058 88.6698C133.98 88.3606 133.787 88.1675 133.594 88.2061C133.401 88.2447 133.324 88.5153 133.362 88.8243C133.285 88.5152 133.092 88.322 132.899 88.3606C132.705 88.3993 132.628 88.6698 132.667 88.9789C132.59 88.6697 132.396 88.4765 132.203 88.5152C132.01 88.5538 131.933 88.8243 131.971 89.1334L132.087 89.713C132.164 90.0221 132.474 90.2153 132.783 90.1767L134.405 89.7903Z" fill="#FF7058"/>
</svg>
